<mxfile host="Electron" modified="2024-03-25T12:27:20.894Z" agent="Mozilla/5.0 (Windows NT 10.0; Win64; x64) AppleWebKit/537.36 (KHTML, like Gecko) draw.io/24.1.0 Chrome/120.0.6099.109 Electron/28.1.0 Safari/537.36" etag="KRe3gkRLFB0qepJCX13u" version="24.1.0" type="device">
  <diagram name="Page-1" id="2YBvvXClWsGukQMizWep">
    <mxGraphModel dx="1434" dy="836" grid="1" gridSize="10" guides="1" tooltips="1" connect="1" arrows="1" fold="1" page="1" pageScale="1" pageWidth="850" pageHeight="1100" math="0" shadow="0">
      <root>
        <mxCell id="0" />
        <mxCell id="1" parent="0" />
        <mxCell id="do6JsDz9k9hJdT36Sn_r-5" value="" style="edgeStyle=orthogonalEdgeStyle;rounded=0;orthogonalLoop=1;jettySize=auto;html=1;entryX=0.5;entryY=1;entryDx=0;entryDy=0;" parent="1" source="do6JsDz9k9hJdT36Sn_r-1" target="do6JsDz9k9hJdT36Sn_r-14" edge="1">
          <mxGeometry x="0.011" relative="1" as="geometry">
            <mxPoint x="130" y="520" as="targetPoint" />
            <mxPoint as="offset" />
          </mxGeometry>
        </mxCell>
        <mxCell id="do6JsDz9k9hJdT36Sn_r-1" value="Endpoints&lt;div&gt;(desktops, laptops, etc,.)&lt;/div&gt;" style="fontColor=#0066CC;verticalAlign=top;verticalLabelPosition=bottom;labelPosition=center;align=center;html=1;outlineConnect=0;fillColor=#CCCCCC;strokeColor=#6881B3;gradientColor=none;gradientDirection=north;strokeWidth=2;shape=mxgraph.networks.laptop;" parent="1" vertex="1">
          <mxGeometry x="60" y="730" width="100" height="55" as="geometry" />
        </mxCell>
        <mxCell id="do6JsDz9k9hJdT36Sn_r-30" style="edgeStyle=orthogonalEdgeStyle;rounded=0;orthogonalLoop=1;jettySize=auto;html=1;exitX=0.5;exitY=0;exitDx=0;exitDy=0;entryX=0.5;entryY=1;entryDx=0;entryDy=0;" parent="1" source="do6JsDz9k9hJdT36Sn_r-6" target="do6JsDz9k9hJdT36Sn_r-13" edge="1">
          <mxGeometry relative="1" as="geometry" />
        </mxCell>
        <mxCell id="do6JsDz9k9hJdT36Sn_r-6" value="NDR" style="text;html=1;align=center;verticalAlign=middle;whiteSpace=wrap;rounded=0;" parent="1" vertex="1">
          <mxGeometry x="280" y="440" width="60" height="30" as="geometry" />
        </mxCell>
        <mxCell id="do6JsDz9k9hJdT36Sn_r-8" value="" style="edgeStyle=orthogonalEdgeStyle;rounded=0;orthogonalLoop=1;jettySize=auto;html=1;entryX=0.5;entryY=1;entryDx=0;entryDy=0;" parent="1" source="do6JsDz9k9hJdT36Sn_r-7" target="do6JsDz9k9hJdT36Sn_r-6" edge="1">
          <mxGeometry relative="1" as="geometry" />
        </mxCell>
        <mxCell id="do6JsDz9k9hJdT36Sn_r-7" value="Network" style="shape=image;verticalLabelPosition=bottom;labelBackgroundColor=default;verticalAlign=top;aspect=fixed;imageAspect=0;image=data:image/png,iVBORw0KGgoAAAANSUhEUgAAAdYAAAHWCAQAAABgE2DRAAAABGdBTUEAALGPC/xhBQAAACBjSFJNAAB6JgAAgIQAAPoAAACA6AAAdTAAAOpgAAA6mAAAF3CculE8AAAAAmJLR0QA/4ePzL8AAAAHdElNRQfiCB4HIQiQ5fAQAAA+aklEQVR42u2dd5gVRdaH3xlmhjjkJFkQBBFQUFFBUEBBAbNrQDDt6sq6mEXBgLuuAURXEfczK2JYwYgIKmICRECRKFElxxnCkGFmvj+AZcKdquru6r63b5+3n8dHrTtV3afq1xW66pwUhGTgKDpxHMfSjEpUoTywky1sYzGLWcj3rBMTCUJ8SaEjI1hIvuZayLN0IEUMJgjxoDoPsEwr04LXUu6nmhhOEIId9g5nhyOhHr5yeJLaYkBBCII0bmW7K6EevnYyhAwxpCD4S3vmexLq4WsuJ4sxBcEvUriVvVakmk8++xkoS06C4Afl+ciaUA9f71NODCsIdqnCFOtSzSef6VQX4wqCPWqxwBep5pPPfGqKgQXBDhX5yTep5pPPHCqLkQXBO6WZ7KtU88lnknzKEQTvjPBdqvnk87QYWhC80Zu8QMSax0VibEFwTx22BCLVfPLJlm2IguCedxyIbSUv0Ie2VCOddKrRlqt5kVUOchgtBhcEd3QzHsJ+SldSY+aRSjfGGw6l8zhTjC4IzknhZyOJ/UR7bV6nMdsor5lidkFwTk+jvvAZ0o1yS2MIuQY5dhfDC4JTpmqFtZfLHeV4pcExgO/F8ILgjNYGp2bOd5zrBRzQ5nu8GF8QnPCkVlR/dZXvLdp8h4rxBcGcUqzVSOod13m/p8l5dQnryoIgxKC9dgOD+5MytcjW5N5OKiARkXdoYnKWJv0RNrrOewOPa37RRSpAEEz5XNnzZVHeU+4VNH3rBKkAQTBls1JMz3rOf6Qy/41SAYJgRnXNnLKj5xI6a0qoKpUgCCZ01LjpTvdcQobGRfhpUgmJhywwJSL1lalz2e+5hH3MU6Y3lEoQsQomZCpTl1gpY4mHOxBErMIhKipTN1spY7OIVcQqeKesMnWPlTJ2KVPF9beIVTBirzK1jJUyygXwQhBErEnPDmWqHQ/66lx2SiWIWAUTtilTm1kpQ53LVqkEEatgwh/K1DYWHHJn0EqZ/rtUgohVMEEtlfIGPpd0nKbZXfyHVIKIVTBhHdnK9Ms9l6DOIYsNUgmCYMYEzambCp5yz9ScuvlUKkB6VsGU6crUqi5duhymP1WU6T9IBQiCKf56itCF5GgrFSAIpqSwRiOo/7rOe6wm51WkSAUIgjn6QI/9XeU7QJvvM2J8QXCCid/gCxzneqGB3+CWYnxBcIaJR/4rHeXYx8Aj/7dieEFwygWGsW7M9jOZxro5TwwvCE5JYaZR5Ldf6KDNqyNzjPKaLmYXBDecbRwGeQJnl/DNvBTnMNE4H/EYLAgueddB3PLVvExf2lGdDDKozkn04xXtJ6CC11ticEFwSx3tBgZ7Vxa1xOCC4J6LAxPrhWJsQfDGc4FI9VkxtCB4JV0T+cbGNdnCgXZBEKho+OHF7TVb4/xUEARjqhp+c3Un1epiYEGwKdcffZHqD5qzrYIgOKYMo6xL9V1x5y0IfpDCXQZb8U2vPdwuJg1X9YeHajSnGY2pRjnKAVvZxXqWsJTF7ItMjZ3AaCuH2ObTh7mRsVoGzWhGU2pRnsqksJNdZPEbi1mscU4nOKICl/MfFir6iF1M5iELDjrDQTp3stVTn7qF2y3EeA1HZ3QqDzGZXQprLGAkl2lcswoGpu7OaE3Y34LXUoZwdCQsU5NhbHcl1O0MpUYkbHQ0D7PM2C45vMk54tDGHWn0Ya6Lxrif0Rpv88lCVe5jiSPbLObeiKz9tuYt9rtoPXO4ilIiPmf0cNgMix7Jfps6ERl7dORJFmgtMp9hBqdek4O6vEOeh9aziO4iQFPq8YGFtc7t3BGhd+SjSlv8KzJ2KMWdLqcHha/3qSdC1NObzdY+Tnwdkf4VhijtMCQiVqhpcRf1ZnqJGNXvxeGeBjDFrw0R8X0gYoWubLDadvIYJvPXkijNez5sp3PqAVDEGk4uZo8Precjyoowi1ORb3zaqJ7LABFrkjPAyHOjm+sbOZFUlAy+9PUQ2AARaxLzV1/bzjeUSYzHTIwocqV4l26+lvAUl8obMUn5EyN9zb8zoxNj7poYYh3KRb6/DkbRRtp1EnIib/jeii/hMRHrQc4L5PRHWcZSWdp2klGZMYEMUu/ifBEr1GNUQDsyj2GEtO4k43maBFJOCq9QN94PmxZ3cz9LNQe/XsoPLGYtO0mhGg05njMcrNZdzVtMlBaeNPR09FluG1OYzwqyyKc8dWjO6Q6kXp1/c1m0zd3Dgb/5B2gcczZ6NqPZZ5jL74mysmeZKK4Gl2WFYa3v4026xVwkasKDDmIWnB1lqaYZbtffzM0aV5kNecNw79MdItYk4S7DfUiv0UCZT2n6k2WU169R3tHUx8hEHxoOlM9ktUFum8gUsSYBFY32kK+is+Eg9yOjtnhFVKWaYnBeNY/7HCw/VWeagcFvFbEmAbcb1PRUB05WUxhkMDb7JarH088xkOqNDvMsxySD84opItaQk8pSbT1/6dhz400Gcu0WTbGO1hrmPhe5ZvKzNt+zRKwhRx+5dpar6c5gbb5vRFGq5cnRmGWcyx6wsdad2PMi1pDzktYlnDtfXCl8qHVqEEFPy3/SrgBXc533nzV5r0u6Vb1oibUUGzU1fJ3rvGtoV4Yvjt/YP17ohqIPkOU671f5SZleW/YJh5q2Gv+MM3jddd6beNBjy01CsZ6pTF3DKx7yzuMRzS86SosPMWdo0v9JvofcX2aNh5abhGKtxrHK9Bc8+tj/hBXK9NOlxYcYde39znhPue/lJWV6y3i5c42XWJtrFo/e8ph/Hu9qDC6El+OUqe966lcB3lampmg6mqQTq/pxl/Kb5xK+UKY2FVdYoaWUZvu996MaS/ldmd4sWmJtrEz9wUIJ08lVpJamtrT6kFJXuU/8ADMslDFVmdokWmJVj/oXWyhhF6uU6VWl1YcU9Se9P9hjoYwlHlpv0om1gjJ1jZUyVieiwQWfX/RBtJ3MaIlVHWBvp5UycpSp6dLqQ0p63NtOhWiJ9YAyNS2ASj2QVA34gDxr8redeIl1hzK1kpUyKitT9ydVA96oTN2QVM+6P4C2U8lDvxsxsdoJiNw4Qg1Yvb1yZlI96yYPtW5KExHrEdYrU20EQ66nWe9NLrH+zKIS037ll6R6VnXbqcFRFso43sMdJJ1Y1UvjHSxsWVC788jW9O1hQ3X2dyDJxVa2K9M7eS4hTRN4egmR4njf/ciN0cQvST6GxXzSJ5LwSaco6/Zdz/l317TOFtESa2l2Kc0x2mP+1TT5J6e777uLhD3czV1J+ZzPK+t2p+cNL29p8o/cZ7/JGk+vDT3l/pDm3Xh5klq1IU8whxxymMPjGhec4eUqTe0O9pR7I40X6i+IHDo5jfKQdy2NY5dczeFlIbGprXFslu2pfnW+wQZFz+Cnaj0bnuWbuWdKew85s31za9ZV6+GwXfTMnaJ1Jrna5fuxr9ZD3Z3S2kPOPdo6vtJVvjW1wTQWRdPgQ7QG/1GzhzgW7dmpyTU3/vHABI/UJ1dTy7tcuO4py1Rtm3wgmgY/mv1a00xyeMKhA9naPD+Stp4EjNPWc7bma2lRMg0cxHtd+Awxow1CIPzsYAPZ1ZoPNgevM6SlJwFnGtT0Lq4yzq+xgXN4b8ueIaeVUeS3rdxgsNOqJqOMQgtNkXaeJPxgVN9vGKx8pHKD1jH8wQnUcVE2+NuGkTFn0FvhYq0K9xsMfw+uMYtfw2Sho2HbyWKw4gRWCr2ZYZjTqGgbvA7bjUPZ/sa/6ETpQn9fmyt4x2jwezh8pJA8fGhc7zt5m8upVeivS9OZR/nNOI+t8fbbFf94ancw3NHvD7CC1ewgg0yaOP64s5luzJFWnhS0YZKDkI4H2cRycthHBerR0OFB9dt4JuomT+VL43ebjSs7ih+1k1KqmwJtN1+L81qAWqwTuQoJLdUNVk7JJgVd2Buo6TdJYCqRqoNrb/zi2yQiV2h3pEjvKsRHqnn0FaMXZkCgFSC9q0jV9BqQKI+ekkDVcCPPBzqJD/PKcCq1aUB96lGLqoeuTMpQFg79czd7Dv1zO1vIJptsNrCaVaxknefQTfGTqvMVYC/k0p8XRayxuIi3KSNyLYHKtKAlzWlJM+op473o2MdqFrOARSzkV7aKVEtgN1fJTvKSOZElMnctRAU6ciujWGC0NdPNtZZxDKF3wgcUCXoAvJgTRZBqMjUecKIyd63MBTzDvAAX3g4wh3/T25Kb7LBLdXS8ItqEjfO0B9P11yfGlZtYci1FRx5nJgcCXkYpKNofeZTT4+am1ptUNxkcntNdSzhXRGhOGe7z8CadzlkOKzgR5FqOC3mVjXETafGNAC9zPmVDJtU2QBd+dP3UG7m3yP5zwYDy3MYKh6bOZWIBn8NhkWs6vXnXwXGEIK+dvE3PuDrfdFeL5zDR8RRiBbe68E0iHCKVs3jF8PjbHB4sFiUn8eV6GiMD/3Lopr8ZwakhkupBjuZB5hgeo3uJMxNq4B9aSnESd/Ihi2JsS9zBDF6kX4nuNhJXrpW4hfkJL9OC11z6UzE0Uj1MI67hRWawI8Y2wl/5gDtpF45N+ikhk20a9ahGJhXYTy4bWa8Jdniwwk2/zgX33bUdN3NFKIdcO3iH/zA7IKnarbma1KYmpUhjJzlksTrJItcmBa2N389BfHftaGG9Mt7XFKXnjqB7VdnpLXL1YSHpMmaGXqhH1gj6+bjwJFKNMPGeu6ZxPX8kjVCPuNq51qG/hXDUlhBZuabSJ+BtlEFei7jC8jqqSFVw0AjWUMdaqeeHbM3X3TpxT2v2qstakargRK7jrJR3fMAepuJ5TbTkVfczkargVK5ez1xUY6RBgBAb1zy+1jj7mhfIfexnhOdAxu1EqoJzuQ7xUEYKfzbcd+XV5chEziFFE+RrCCl05/NABJvFdZ4+6vxTpCoUxOxDzn9d53+MQYgjG9dSzjlU4hCj105nFgZyX9/RwrXtxsrHGsF57+pu1prBg+wJQBB7eKjA6ZAhhmOEMjwcyN3t5n6XvizGS68qOJfrCy5ybWW4cdzrtYzWhcod4mBA34blgdzjz7R0YcGXRKqCc7k6jZ2dyl2eeq0c41+OL+aCZYij2XdVJvhwV7H619scz1/7iFQFp3Jd53CbfUPNiqz6+oGrednwt4/E2IIwxOFSWSqPGpb2Mlcz3cOTTaK+IztWYL1IVXAm16sd5dPb9drvLl6hHXCekUO0PG6LWf4QF+vadxiWeC7QjlddH47Pcrhh4hqRqlDSyvCaGA3jUQc5pPGES8+Da7jr0HfJGor+pKBw+pdwD27ECrcY3fe6Q7H6qnG38d6iovf9qKMTo4/FtFVraaxCnSJH1tY56lXr8J1LB6C3FvBv9LGRy5q/lHgX7sQKNxq5PjkS1bYst7kMI/a1o+im/Yq8vD6RwFDCYU7kYd5jPC9ypaO56qmumu56bi/kiOzPRn91t+I+3IoV7jEq+/oCf1GO243GAcVfT6c4mrtexUuM5z2GiP9ewTt92O3Cm9GdlCuUS02j+a76Q5J7scKLRvPOwmGry3GnCz+MuxyvsAuCBVIY4nimup8XqFYspzeMNsmn+SbWdL4wuINXi/1dZR53HKozj8fFLZkQLGWNtsUVnbW1ipFTJwPJz9e6KfMiVqhksA0xj44x/rIV3zi2w5iE8EUsRISqTHXYQFdzRQm92jyDwaN+J5A3sUIrgwH93JhOXFK4ktWOPThVlUYkBEFt5joMRzGMCiXkdZfB399kcE9exQr9De7kzhIXg4Y5DPcxx9HasCC4oqFDBy2/07nEvKqzTfv37xvdlXexwofae9lOzRL/+lSHdvmNxtKYBD9pzipHTfLFEvtUgKcMAjpUCUysVVmpvZ/hir/P1G7CL/pszaRBCX5xIhscfU3tpcytgcE80TSamQ2xQk+Drfnqnb69HH2BXS8bCAV/aEWWo4PhNTT5vWrx+LsdscIYg439amqwzFF03JbSsATbNHW8L3YidRX5Hav1z7RN+ff+iLU2W7TLZSq3aLX4yHFgyebSuASbNHI4Vz3cb1xWYo4faP/6Zgf3Z0uscIv2vsaW+LeXsdmFlVaUGFRMEBxT14NvhbdiLhEdp90K8aOjnT72xFpKG+AjN2ZfWIW3PfiSqiONTLBBVY9uxlbT3cV8tZOje7QnVjhTe2+vFPubHo43RhS+FhiueguCgnQrngrH0ahQT71X+3viJla9m+19hdaE6zLK5Xnegte3Bdy/CYILUoy22ZtcOxnyvz2xw7QDzRPiKtZW2lOuTxz6ZQa3evLSVPB6J3TRgoWE4h9W/f2toh9Qka2a373h+D7tihVGaVeqKwO9+c2qfR6UBie45VoLw7viDsRGaj0CN4q7WBtp/TSO9MGReZ5Dz1eCcIj2jk9r2rlecnGvtsWKsa9Fu9c+TpeGVxJyELgkajDWyKf8JrZZLTePpxLi+YeTZzW/bWwyWs57h+rS+ESszuwymnoGv9tKD9ow3WLJ4/g1ISzwK59azO0n2tGNLINfNuBdR54QhcjzmNGgbRsnH+oPHrc2u+3g6n7tD4Oho7XB7QuHxignGnpX/qc0QMGU842kl1NofnWRdletyTXN5R37IVaYZuGJsrmw0Atgh9FCUy9phIIJdY1O1+wrti+poYX10UsTSqyXen6eL2hQJM/zjAJMb5YNiIKeFO3+nYPv/utj/u2NHrcI7GQc/ZQH1oMRaxl6M8rjWGEXA2OuidxgKHPZIiFouM2oKT1U4t838hSg6nAzH0c/rUdDf8Ralt6MYrvnZ5hK0xLLMNtqcos0RkFFSyO33W8o3/qp/F27R8ksYOLnDKJDTJ+C9sWaTgcG8YULt+XFr63covzOkMKbRq+sFtIghZLIYLZBI/qRMtqcjmK0tbXUHXzBYDooN7q7F2tpOjCYL4wWfsx2IY028FxYRnsQL598Zhm9qIRI8pCR36B6hrl1Yr7V3T37Wc44hnAZLYv1W07FWodu3MooZnkK/1z8Wsw5htY5Kmb0vqLXYGmUBQckwmGaMVd7TGsfXZjqoKe+hcG+OLTOYTFrWclaVrOatVzHQMWvn+A16lCPetShAXU4lkwf7imLf/Ec+41/fwZfaXvO3bRmmTRNoSgmH14GOM61AkNchyEOz7WXZ6js2DZ3GAUdkQ5FKMI1Bg1nvMuGU48XHHqsD9OVy3sc7XJcZxKXto80TqEgVQ08Aq/ysMW8LDuTVqy7ioSwdGb3FQZu52Rrv1CAFwwi1nTykH+vpB4Ee9kc2Nkg9vrz0kCFw7Qw2AL3uKcS/i+pxepNTE8avCjFFbhwCP0Gw18Nvq2qWJHUYl3paRGoNAu0JXwijVQA6GLwhfMUTyWckPSrwa082edUg+W3btJQ5fB5qoFnhieZ4amMnklvRW9POJ2ntb95XNqqcK1BhNVyHsv4Vpn/ctoxlD8Sttf8g6G008QkmOzRQuUNJgriTC3ipBnEPOvtsYxymi19zwGQwuk86TAgsd/XYoZx2qH56EjNoYMyHq10kcHdiLuXSNNX20Q+9lxGN0cfPlpwD9/Eya/ikf1IX3NPkYg2vTV/c5ZnO43X3tdV0mCjSyl+1X7wb+S5lEc0XoLLxxwW9uBJfjLyqmDzqMAshtE95rC/guYF8rBnOzXWHipYIPPW6HK5tvk+ZqGUqRqPCCoq0IUH+Ix1vop0HeN5gC4aDxVfKfP4zoKlhmnv9DJptNEkhbnajW6VPJdSgX3KMu40zKc2PbiXN/jRimO2fLYwnTe4lx4Gp08Pco9m6FzOs62qaL1fzYnytv60CIu1l/br4D8sOPA+XXMM7BvDfNYzkYmH/r0WTahPA+pTn+pUpwbVNH+dxSY2s5lVrGQVq1jOBsdPor7TDE7jK4+22sK/GK78RWt6WvVnLISEL7Qhfm34KXhQ43nYzgqnP94Ni77Yt/t+ULw0v2tq5fPoNtjoTthbaPfE/MvBQeqSOU2ZOoXc0FjsgMarcXsLZezVrhKcHTPuuog1qfm7ZvazgretzItPVqZ/Fyqbqe/2VCtlvMYfGov+TcQaLTK1R5r/xT4L5TTVzCa/DZXV1Hdbg8YWytjPUM0vrrGw7CdiDRE3aLzyrnIR0Nj50HA3P4XKajPZ4/tAGF5lteZF20/EGiX+okl/xkq/qmu+v1iZFQfHPuYEINa9POux9kSsScRJHKdMz+FlSyW1U6bOCJ3lZnp4WnNeYocyvRUniFijQl/tQGybJese76Hph0+srSxtWdiqnYT0RYgEaazXeOtrYqmkYzTfDJtae6YgvrMCtNA8USNL5TTVeGZaH8XtPFHsWXtQS5k+keWWSmql6T/C5756MduV6a0tlbNUsxuqFmeLWGUQDK9YK0kt1tnkh852efwSiFj1tdBXxJr8lNW4INnMeGtltVGmzgul/eZ7eD054UM2K9N7ez7uLmJNeLrFPD96hFHstVaWenlpQSjtNy+gnnWfZgdZBQvH3UWsCc75mvTXrZWUodnRMz8Je9YmFoM0vu6xJkWsoX/eXpqmaG9w2li5Ypkf2p5VNdNOp6G1kmazSCPWFBFrMtNec9R6jMWy1B9mVlr6lhs02zSbAZtaLGusMrWOtU0YIcHt16rqHEt9KlKRUsA2dvA7v7M24Z9X56kwOLH+Gto2s5D6itRmTLBW0hju1/StsxLeWnU4msaUpxKQy3a2s4rFmsUzK2ItRTu6cBYnlRAgeAvT+ZGJzEjYjxLnaAbBvwYm1qWhFesyugfUs85lMccq0rvzYMKOWE+hB+1pT5WY6Vn8xGS+5id/zjO35knWGvr3WcMIi4v49qikCdPwiNXSJlkOy6wiqB1MALcF6MlhqMYbY2YCtrI2PGeslLU8aVcpKfTUeOiLfU1NuCUAXeDFjlZLU/uYPy+0YlVb8TerZZ2lqbFzE6p9pXAh01woZYqt1tCNnz340JuZUNvChmn8/dncb5qm6cWbhVas6v3B+6wuWmawzcdAnLanWD95UMpPdPFW/FGMIs+z08txygWJIJmpvM/3rJbVQBNxNCO0Yi2teQ3VsVrah8qyfkiQlnUUoyy4h/WglIsteajNZwsXJ4BBK2r8299gtbTTAxwsBitWWKksrb3Vsm7S9OMVEqBlXWJNKdlcqFq1KuntOYL3qWzpYSrzPs9Z3NvijlM0w9zvrZZWT5m6mjCzSplqdxyldtKW7jFyrnfSGclYa0qpwgf8u6RRV2yxVuATbrH8UH9jQpwdXak/oW9gieVhsPvmnuis9vCacsoiNinT28bVEpl8TH/Li1S3MjG2h7BYYq3Fd5rvke7oynfUiKNhTwiwX4W6ytQ1SSxWuz1rPlM91Kq/1GSaL+vRZzGZmiZircpXnOjTw7XmyxK2UwSB+qmmWC6tvojVElM91KqfVGeS5lyVl1Hg5OLbKYqKtRyf0tLHB2zDBMrGxbQVNHtrplsur1YSz1nXeHhy56hr5lgLAbHcUI4Jvm78acm4ok+WWmS8/LYm3IN3TuHVuGyVaKP8/pdr/Sh49cj2rNUtlzaHPEVqKYtnaJ3MLF/nJJ/L6MCbhZVSuAHfwQUBPOgVxmEO7YpVxRJ2BSrWjaEW68ZAxZqj8YnVJg4WuDeQSLEXF96UWlCs7a2EDjbhX3FYFjhG8/a2SynN3HxzqMWqvvtq1g9e/qJMbRr487e1EOfdjKEFYyUd+fKYziuOvoTuYC5L2UgeqdSkKW007lIKksGbtLPk896UJh6ag3OqKhvsPo2PwERnG/sVbaUUVciyLNbLXNesfTJ4M0ClvEJbDhT933cb77LIYgQdi91uOmcwQhu52nnEb1vMV96NbRchLTSnkmwT7A4mWKcs71jLpV2kLG1uwC3pnoCVckfRGziKHMPi71C+FypwF9lGOW2N9SXJxwWBXcq7sb0CfoaytDmhF+s8ZXkdLJfWSlnajkAXLI/ShJS2r5TtRdfXhxv92TtGmxpq8l+j3IYFaOK6Gh/8tt1anq8s76vQi/VrZXm9LJdWTnOcpHaALenpOCjlicLrdzu0f7Cfvzp4pP6aTfMH3xjBbZBQ93QrrJd3lbK8saEX6wfK8q6wXt7qQHvykomrUg4ug9ysnfLu4xL+z8EtPM+l2gWkTG4KsGdVsdx6eeU1Sw5hR/0E9k/CLPdQuzb5a5yUcvNhsaZwjebHefTjE4eP9THXaj0xXRfYbEP97c++o7cKSS7WnIDFusZD7dpc+bg2Tkq5hpSDYu2gXfx+nP+6eLR3tLPSpoENYNQziPUi1gTvWdd7qF2bk6n4KeXUg2K9XPPDn3nI5cPdr133vEjEKj1raMR6URyVcvlBsXZT/iif/sU/yhqyn79pftEjIcS6QcSa4D3ruoQQa/c4KqUbpFGH5soffcaPHh5vKhOVgjyOB10HgtrKLH429FCsrs4ulv0GofFf0InSlsvroEkdaLm89ppU2+U1tyLWFNpykmuvDqVpEVel1IbLNcvGXT2a+WxL3mliX4tUPmsKMNfXu5ArvtcvhoPYRb7ehd9KuSxV87ZYxdceb2Gyr8fBjuVDnjT4XeRieUYKfe2mMJwPrG+DDFYpx6VqHmCC8iyhCblM9Lmq7uQegyGMkLzoa3dg8R22lvFfKc1SNc6mbXgm+s73yvqHNtBghrToCIv16ACOtPmvlGapVFP+wEYM0QUBVFZ/j9UpJLNY+wfwsvZfKdVSNcvsKy3cwsoAqutcEauItUSC+EDov1IyU9irfOuUtnBEvDR7fDfVDk08sQOUkjadtBzQHAbPCcBvv/9K2Zsskc/zpMUKyU6qZuOYjfiXFQN4jj806XulqpOYvR5bhw38V0qOTqwNLdxCwwBMNUHEKmJ13TpIkFbeUCfWbOUPjrNwC8f5bqg9PC9iFbGWyPMB1L//SslK1YRj6mThFjr7bqj7tWtxItZoD4Mf9P0e/FfKklQWK39wrmcfsKV8XzgfxnDtb/ZJi46wWGGo0aZUL/ivlMWpLFT+oJ7X4Ol0tX6ipSC/coHBZkMC+HgkxA+T2r2bC1nk4z34r5SFaXxPvtK5yu1M8nQLuj2ZT7HfZQWtYRazDX+tdjo91roXpnOVEVg+t+5UvKPykNxU6zHyTlCe7ZxrfUmnCZe6rt3DfMzHtKUddV0e60jXtGV/lZJ/cEPjQuXBnDxPoao6ao79zA/o3TtGeRd9rZc3UlnebdbLC9q74W3K8p6zXl5fZXn/DagVLYijUuYd9BShfh+k8HyBIBtO30UjNb+YGJCZ1dGza1kvL2hPCkGT6eHp3XCUh9q1x+dxVMpXB8Wqey+dwCMub+FRbTi+DxNCrLVFrA4J2m1N7YQQ64dxVMq7B8U6jWXayfmVLm6gjzaezRKmiVhFrKHpWafEUSnTD4o1nzc0P03ldceRWy8yCJr8mqEHJb/FWlfEmuDD4LoJIdZ8Xo+TUt44mDnAf7TmzeB9bnFwAwMYoz1DmMMLgTUutRvvJgGLNTP0Yg26Z23ioXZt8n9xUsr/HRFrloHD/1KM4D2jpZjajOUZgyNp/8eWwIysC79Q1nJ5O5WplUMv1iqBirW8Zhi8PLDnzuLFOCjl+cKbgmsbhnzcwj3Kt2omA9lqmFOwIR93SshHiwQb8rG1srScQEM+1mZbwErZVlwpdxq7XMxmJJ2Ldd0ZdOZ5w4iT+eRze8B9gTqY8gWWS5Ngyja5OOBXn5q7AlbKbYf/8Mh3oWe5hlaGQ6D+9Gcn81jCJg6QRg2OpRXlHL2ZnwvYxMuVvWdzPg5wQas64SZF47lrk/VXX2IMgg8r5VrDkZgNpcw9opQjYt3PDUxx4FiqPKdyqsvH3Utfl5sM/Zq1nmC5tC3kKTZ2Z1CJbSEWa2WlG5UDbLVc3gkJJdZ99GV6YEq5/khIjoINaqb1oAclMSjwoQuaL2S2xZqrOScc7r5VfffZ1p3snOChZv1gNg8EVNLd/HTkPwq//Z/hgwBu4C2ejkMD+0WZ2tTR0MSEzcrUGqEWaw0PT+6cipoPN3PiYIFhgexHHsOIgv9ZWKz59GWqzzcwnT8HthWi8Nhf9b4vpd3uZXfWWi/UYq0X6Iy1tXK1N5e5cbBAPtcx0+cyvi8a5LzovGoX5/vqlHs258XpbOkOjU+MUy2Xpw4jWTeJxWo7gKb6LMtidsXFBrvp4WufPp8L2K0WK2TTpeA42fJQ9JwAN0IUf1Go6Gi5tNWR7VlXWy6tg4da9ZNszvatV59F1+JKibViuZEzNYeB3DGJM63PZ2yKNSVAsSZzz7rKalkpnK5M/zmOdthEBz7zId/JdGVj8f+dWsKQ8XyesTqzzGcE58X5c4VarLVoarW0VdKzWqGFZjnrl7haYgcXWt4xkM9T9GC70z+70MEuC/WVZRjy2F8y2a+8yz9bnmmpyvrN8rMFu4NppbK09lbLuklZ1r6EOMF0kUWlnO/2JmozijzPNzAuYfqRGcr7HGO591GVdcByXLMgxVqaXGVpR1kt7SNlWdMSpGXZUcp7Xn2WnMlMD8VP9+zzzSZDlfe61bVTjlikafrxZqEVawtNX2czBFgG25WlPZZAraurpjNQXzNs+dfuwXcuiv+Wngk21+qpueMzrJb2h7Ks80Ir1t4BDvC7aGqsR4K1sN6ulPKd0lekZoGpKBPpRCuGGZ8WWc2zHE9nxieYKaeQq0w/12pp6m1wx4R2eamJh6d2irpGDlh3seqVcXSiFSOMlbKGoRxPJz++vpTiJO5mAptKeENs5lMGc1Kg5wudMTNAx6j/UZY1IrQ963PKskZaLWuJZpKVqKRwEvfzKZtLuPNNTOBu2jnz4u9slpbLLGYxDKjKsdSnMpmkAVvYwe/8zvqE7xW+4CRFaktaWty/tSRJe1b1nS+1WNIJms9pnyesjfKZxaxDS09H05jyVAEOkMNWVrJEc8zDiliPkM0P/BDChvYJg5Tpl1kU6zLNMk1YaenhFeWMP2nSPw6Btdaz3pZSkiXyuSkzNLOJK6wO4VQ0CKknpkqa3Vc2e9ZLNfO92dFqvFETa75m0etYi6dvfj9ybDjmrOa4UFqwlXJF4oDFKONtNYPgT+JyekvEGuhAWM211krap/mMcXxIxapiuUUPINd5rEkRa+iZRI4yvR+lrZU118PcL1FRv2LsHRorw1XK9B18LWJNdvZqBsLV6G2trHke+qhwinWetXIuoqoy/ePoRbOPnljhTU36DQH1rCcm8PfoktvLCR6e2Ak3eKxFEWtS8IXme3B3a35v1U23suX9wUHQnIqBDIObcZYyfZ3HwMUi1pBwgHeV6Sn8zVJJv2vOJZ4cOtudokzdxkpL5dyuaZlvaTaOilgjMxC+XjNfMkW3gTF8Yj1ZM5Kw8zGlijYW/ZtRbLbRFOvPmn1K5bneUkk/JZlYT9LY1Q5/obzmpTBXxBoddLHABlg6HP6jMvVEpWf7xCODNh6e1pTSDPBYeyLWpOI1zWyyvvaTvA2xltH0VIk3Y1V/g7ZzCuYGzYbGnGgOgqMrVn2FD7LSty7X+HPsFCqrqe92I79bKCOdezy+aEWsSYfOe2MD7SKHCfnMSCKxdg5gEHwDDTUWfT6qTTa6Yl3Kl4H0reom3NGqxyJ/SdN48J1hoYwy3Kf5xRcsjmqTTSO6jOAcZXpj+vNvz6Wo53EVOcFF/IO6HE1D6lOfelSnGjU0n5oe4u9sIovNrGYVq1jBb6x1XGpbjdtPGzPWW2igrTUhgqQwR+PIarOFM6cV2Kcs407DfOrQk0G8xSyNvz/TazszGc0gzqOO4R3co8xvr4U4fFW1/nd/CeEWTcEKf9I26ScslDJVWcKXmp73bB5iAhssOZGOfa1nAg9yNpnKe/lK46HPO8O1d3qpNNroztgXahrHbo72XMojyhL2xNwAUIGePM0cDvgq0uKux3/hKXrGHO5WYK/ybx/2bKdj2KO5v/kRXmMRuNognoBXumpK6FXo1y25l+80Q2e/r318y71FPFmcr/mbMz3baYL2vq6UBhtl0liqbSIXeCyjrKbHGHloBt2Rp1keV5EWvZbxFB0OzRJHakYgZTxa6RLt3SwK0cq54Av9tI3kD89LJ98q819OO4Zpgj3F81rBMNppXiOTPS/D6Z//KmmsMm/92fdlpkEJK0Rb10Dfl5ZmyjqwAGdqG0qux7jorZNerN78SZ1msJDWRRqqAPCpwXyprKcS/khqqa7wZJsyLNCW8KE0UuEgzTXhGfPJZ5inEv6T1GL1Ft/maW3++0PqY1nwhf8YfIP0Ej+zV1KLtZcHy5ylCc2cTz7PSQMVjlDVYI/Qaqq7zr8sO5NWqrs8rJbXYI3B/qoq0kCFgvQ1aJafuVyRrMcLAe9FCvLK4z2X+7xS+MQgf9kKIRTjS4OGc7vjXKswlN1Jvxq8m6Eu+r+7DHKeKA3zyLtNOExT5mr34eynK98b55jBAAb5MojbxiLWsoq1rGUV67hO+aXzCV7jKOpThzrUpw7NqeTDPWXzKCPYZ/z7znyp9UG1m+M1EYOEiPKA0QmV+saNcYHV3ms/yxnHEC6jZbGXrNPI53Xoxq2MYpblXn8J3Q2t08DoJNG90iiFknrCnwwa0EyDb651eMeaAHbwOYM4Xem3wqlYCz7z6Qzic3ZYu9+3Ocpgwc3E0jNC5v1RCJQW7DJoRG8qpw+p3Mo2K6usE7mP040arHuxHiad07mPz42eX3dtY4DyMFsKbxnkstNaGBMhSfm7UXP8Z4l/fzTfWJDpOPpposrYFuuRPq83oyy8bKYpIvk8apTDzdIYBd2S23ijpvS3mH97IzmemvhOxtFP4+vIX7EepAy9GcUWj6+cgTH7178Y/fXnsvgp6KnDZqPlnp5F/q4Rkz33R27dltgW60Eu9fw8XxVzLNrLYGtnPpsM5r2CAPQmz2jhp+BZnEvYamG2Ny2hxDrNwhNt4eICOXYy2smVW+xFKAgl8ojhQsophxZnHjeSt8nVMWHEeoa19eEXDoXdONFwYD1EGqBgTqqBR6CD/UZbGvCDxS+VHyeMWD+x+FQ/cQytyDL67ZfivkVwRnVWGDWtjVaGvwWHgC0SQqwtDE7DOLm2stHod39QTRpfST2IEJvNXMZeg9/VsLx1L5W7EuL577LcNipRw+BXe7iULGl8IlanzODPliJ5F+QrbWClPjSK+7M3oo/mF8/zlfVS87mBWdLwBHc8ZHUouJJ+QEXtMsuouA+D39QurVUCelt2nTpYGpzgnhRet9QQdzLkf2d6ntDOW0+Mq1hba+erjx/6ZQa3Woq9k8+r0twEb6QbnXPV+/UvuDmgtvasy/i4inWi5u72FApmVZdRFj5cfWMlwKYQcaow31MzXBUjtOQr2r/qHDexdtHe28vF/qY7qz3ZaJ6FeH2CANQxCLJR0jU65uFz/YeRGY4W/+yJtZT28FpuzNMwVYxO0pR0ClY2FwrWaGj41bXoDteS9/qOdXVUwH+xDtDe13sl/u1lbHJhpT+0AZQFwRHHGPjhK+o9qK4iv2baDe3blH/vj1iP0m7xOKDctFGTjxzHhpVTq4J1WjrqN5ZqNwG84qEP80us72vv6SVNDjUcTRk2utqvJQha2rDeUZ/RW5lbfQP/Rz0DFWtvAy+G9TQ5OLHQOlpJoxL8opnDuevLZCpyG26wjaJqYGKtxirt/Typ+PtMXnY4V20qDUrwkwYsdtgkzywxr+oG7lM+NfKY4F2sKQazza2KTfanOVwx/43G0pgEv6nNHIfnaJ4qsX81cXN9cyBivcXgTu4ssU99yuEZnTnUkoYkBEFVpjhc81xDn5g9ZDrzDHwZHe+7WNsYzJ/nkhazR+7DWofWmGI4uBcEC5Q1+E5a9PqO1jFyOsNgq95C7TE8b2KtzCKDiDYdY4r8O8d2GOMx1q0gOCSFgY53xOYyKkYkOpOjAl9rds56EavZ7udXYkj8GSPnZ4Ul/7gcyxTiwZUugk9s4m7KF8qlJtkGf/eib2I1WcPNKvLVuDx3u9ittIsrpNEIXmnHPxjDeF6mjyOvve0dz9fyyWcDdxaKaXqD0V/d44tYBxqVfV2BvyjHnUZxaorP2092YNkK9OFlxjOGf9BWGqhwkLp8VmQzQz8Hf12br11tXl/P7QXmbh8ZDaJvtC7Wm4xWcT8sINQ7HG17KOhB2Mn677VFXgefFjqUJ0SU1jH7xscc5FCKR12e51zLPYe+XNZgndGM7xarYh1gdN/rDs2zqzPQ6C5jvWb+6chj4WMx++XW0lijTZsSZ179HOXT09DNZqwNfK9yEnCekXDyuMOaWO82XBI6FziJ11wHh9zMuY5seW2Js/020mBFqrGHqeUd5VWfSR4OX0+nr/Fmvcdi9FJOxVpK61rmyIbJvkz38GRfaHYTF5+rblAszolcRaoxr6sc5pfCbZ5CE5uHtJpYbFOBM7FW43Mf7irW6u8Ax+GlrtaspYtcRaoxgz44pyU/W/X3V9K1vEijdSLWE/gtkHuc5er428vaT1+RlWtqZKU6Kcb2hMK4WX9cQHvuZ4/v99+YH3n4f94SzSnDP/mRo32/v90M4jR+dfGXOgcv1Zkkvav0qkWvd13n38SKR0T9tYzujnrWM/k1kPv6luaubTfGIP9s2knPKr1qQX51XcJyzuH6AMJANGEiX9LDYF6YQg++5GsPIjIli2s5k0Wu/97E6lWYKL2r9KoFrxM8llSVZx3vnXXryFO9MWOywdkeG9c+/u35PE1b422bIleR6qHrEyvltTAMHZkM13hL/fanIlfBiVTXWPRke67Dw+phvGb/b/bsnTrGfiRFriJV640glcsDWtqJx7WQyxx/TU3UmhIiLtWDlOIayzHXEuFaRj9f4pSLXEWqcf4skEpvfkwaof5Cv5iOXuzQOiFqTIioVA/TkXEWoq7F95pCb8tDX5GrlpSQ3W86DalEJcqxn1yyWMd6A6mafVeFzXRjTkCvj5sdHnNPFHIYzX+YF5CVbNZcCrWoQ1VKkc4utrGNFeyXnsw2abTnHj5mCftibBafxatcV6IX2sSd/VTk5pCtE8/hr0qn5Yk5d23M9bzGLHbF+C68mI+5m1N8HM5HiFS68rqBK+x88pnPwxwTuoWKU3nWlZOUYK8NPEv70C0MHsM/DGPrbuVVuogrN/dU4A5WOvae9yU9QremmMZ5jGZHQso0hzc5N649j7taPJcvHa8MrOT2UE5N4kxZHnDteyGfmXQlfMv/ZenFiy4dp/hxreVFero42RN/uXZjluun3szghHjm0HC+hROX40L6pS6V9jzCtIB2Fce69jONR2ifUINCJ3IdZ+HrcS8Rodmyy7uBNs1E/aieSU+G8zMHArPEAX5mOD0DXkKyL1c719tUFDGqaeswFpnXK/G/0JWnI7cyigW+fZtdyziG0JvKCW6J1gHL9fc4LamVSGJ9Z72EtygdYHnBfVe1M+ZoTkta0IJjaeDJTntZxWIWsogFLGJbaCxg/t3VDnu4qoDPZBFrAW5ipC/7TJNDqkWpTX3q04CaVD10VSKNTKA05YBd7AVyOMA2sskmmy1sYBWrWMW60D510HLNpb8mcEkkuTXgZRTZAB5WuW4KuKUMEKMX5kqHwXiTf64qJMrcNc+hw/ckp1uMbYTSqwqJ0rvu5Swx+kFqBbwRQHpV6V2db7eUwFhAqqewEyJVkWsw19eBLn7GJP6rwXcxzNHv9/MHq9hFacpxjKMwghD2FWCh8GDY+crwBpaxi72Uoz6NSHf0t3fwdLQNXpftDjaB/YMOZBT6+5pc6mgL/IfSxpOID43rfQdvcgk1C/11Bh35pwNXO9ssOtELJe8YGuoHeipGAZUYZLjtP48O0saThDOMt+bfSyXF2LKXsaudN6M97zDZQreFaw2G69V5w8jg06SVJwlmgShfOxSuWj0ZvJ6tRq/6ltE191tGscgaGefXJ4Y3gOJXJ2nnScBZBjW9kyuN82tsFP8vsn3r0QbHwL50eBi4A9naPD+Wlp4EfGqw7n+6oxwzDb5L7HfQdSQVDxvEAy/vONf22uWmXIexuIXEo752x9suOjrOtSxTtG3yoSiaO4VlGrOscrllu4/W4HdJaw85A7V1fLmrfGuwWpPvkiia+1TtZL6z67xHaefBQriZrV1Wcj8X1i16nhw9cz/om7mhJls0L4Ia0t5DTG2NoLI8HaPTvervj57BJ2sifTbwlPsDGoNfkaRWbcQw5rGDHcxlaNIuhugmOoM85d5Qc6xkUtSkmqH5yOJ1ibyqJv8RSbkKMJC9hZ5yD/ckZet5XvPBporH/Edr8s+IlliP17wbu3ku4b/K/L9JQpsOj/mkTybhk6rXbN/xnP85mtYZsa0RF2n8o3s/4XClZlaTbFxc4rNekHQjiG0+rAMXJE2zY/3CaIl1oCbgvXfqat6OFZKsAS8u8Ul/DV34MTVVNDVrY7v9BGUJcZpcxMuRc21l6lwLJawhW5meXCcoTqJZiWnNOTGpnlVdcxutuIOb56H1Jp1Y1f3a71bKWK5MTa6PN22Vqcl13L56AG3nN2Vqpoj1CNutlKH2h5ueVA1Y/eqplVTPmu6h1u20nYiJVR2V7ICVMg54uIOwkSbParXt7E9Ee8ZLrDs99Lt2em+JeR1W1DVX3koZ6r5zR7TEqn5cO57k6itTs6XVhxR1zdk5UVUvgGlaaMS6RZna3EIJ5TRi3SKtPqSov5E3tBJd9Vhl6tZoiVW9UnuahRJOUz7bXtZLqw8pa9mrnE/aiP2m9tS1LFpiVZ8KPIYmnkvorkxdSq60+pCSq/mw0sNzCc00RyCWRkusi8hXpvfx/FzqTWcLpM2HmIXK1Cs8t+qrlKn5LIqWWLM1D3yzx5nHRZojdlOlxYcYde01oren3EvzF82Lfku0xIrm3Ettrvf0VIM1v5giLT7EfK9JH+ypXf9F8zXim+gZ/FLNdmwvp/1v1OS9No4vKX8YonzeIUn2tKXYoKlh96/6Glr/mBdHT6zlyNEY5VOXp0WaaI5Q5fNc0lkzWmKFFzQ1vJWjXeWbwkeanLdTLl4PHb8eZhcfaX7Rk/tc5FuRsVTU/GasjCRDzhhNeiXGutrBO1h7+vdDdkXR4GcbhCu4yXF/rXfUnGznO6PYs6ayRFvPkxz3gTcZhHPpRiRJYY6BXAc7kFYNfjAIgfD3JLRl1MQKtxnFNarhoDXebyDV2Un4ojfkKqPQQh8bLjV1YY1RDOsKItYkINMomPJqzjJ8zX9i1BYvJ7KUYpGRibL4G6WVOTXiTaOIdPnclpSWjJ5Y4U7DIJ9v0FCZT2n+bhAhKZ98FsQ/+nk86W4cynYND9E0Rg5pdOctjafXI9dvVrZ5i1gTgTL8YVjr+xjNOTFPoTbjIaPx2MGra7znjfHmfUffrX5jGotYRw6pVKMRrejgaNWvB58nqVhVAZMeTlK5nstnDn6dwxTm8wdZ5JFJHZpzuqMPPGP4ExGnHpuN32xer1FJa8Uo9qygc8dt89po6ZS1B+K/k2c1/TSb+m2xLCnXgaPNzSwOpJx8/sxaESt8xvAAStnFJZacaQmJQw5XsDuAcobySfwfNjH2yN7LBz6XkEtfK96IhUTjF/r5fjZ5rMdQV0kl1lyu5EtfS7jd99eBEC/G8jdf8/+WvuSJmQtSka99WhrIZUDSWy+qC0yHGUCuT63na+1O80hSWhP5zd21lysjYLuoixUuZrcPredDyoowY1OKoYb7kEyv9ZwZCcuJWOEs1lttO3k8nnTnni3TzaLJJ8f/25iINUBqMtFa29lETxGjnrqMsWDsrdwaoffio0pbPBoZO6Ryu9b1gMn1XmRe8xY4m189LSmNildYvoBJoRNPsVBrkYU8xRkROd51lPGhjpK263cVATqdv17OLy5MvY9RHBcJC1XnfpY5ss1SBlMtErZpyZvsd9F6ZnN5tE/WeOk3uvGGJmR8wWsRD2qOQyVP7/E0O1z1GzkMj8iooxFDDPxJHPGt9Abdonu03BZluZgRzFcMbXbyBYOSLGRwyWRwj4MXWKxrG3eRERFrncz9TGKnYs13PiO4OAyfaML0JqlCM46lCVUpTwXy2EYOG1jKYpZFKIBjW960MsxfQF9mR8Zq6TSjGU2pTXmqADvZSTbLWcxiCVEm+PNqvc/4mL3JdpF7ZNgnCH5QxofTm+/FzwuuICQr1Znpy97XH6kqxhUEe9Q0cNvq/rviUWJgQbBDJeb56rJkjpwsEQQbpPOF7x6Gvo7MpxxB8JGRgTgEGyGGFgRvXBKY/76LxNiC4J66bAlMrNkR2YYoCL7wngOxreQF+tCWaqSTTjXacjUvsspBDu+IwQXBHecY+zT4lK4lnN5NpRvjjY+MdROjC4JzUvjJSGA/0V6b12nMNsprhmxAFATnXGTUpz5DulFuaQwx8gDYSwwvCE6ZZrAV31m80CvZq83zOzG8IDijjVZW+znfca4XcECb7/FifEFwwnNaUf3VVb63aPN9VowvCOaksta3zyy6z0GrZZFJEMw5TbuBoabrvGuRrcn9ZKmAxHyDC4lId036I2x0nfcGHvdYuiAI/0PtWT6L8p5yr6DpW8dLBQiCGSkaMXk/IaM+ybNZZq2CYEYdzZyyo+cSOmtKkC39gmBER42b7nTPJWRoXISfJpWQeMgCUyKijiow14KX5H3MU6Y3kkoQsQomVFamLrFSxhIPdyCIWIVDqNd6N1spY7OHOxBErMIhSitT91gpY5cytaxUgohV8C6kMlbKUHvi3ymVIGIVTMhRpla3UkZ1D3cgiFgFI6k0s1KGOpftUgkiVsGElcrUNhYccmfQSpm+QipBEMyGqOr9RWd4LkG3g0mCVUnPKhixmSxl+p88l6B2B7OJbKkEQTDjc82pmwqecs/UHBSYIBUgPatgymRlalWXLl0O058qHkoXBKEAp/jqKUIXkqOtVIAgmFJK64Ppv67zHqv1wSTjLUFwwDCtF8L+rvIdoM33CTG+IDihtYHf4Asc53qhgd/glmJ8QXDGFAOP/Fc6yrGPeOQXBD84zzDWjdl+JtNYN+eI4QXBKaZR5H6hgzavjswxjCInCIILuhiHQZ7A2SWs4ZbiHI1j04L9dGcxuiC44y0HcctX8zJ9aUd1MsigOifRj1dY4yCHUWJwQXDLUdpQF/auLGqJwQXBPb3IC0SqeVwoxhYEbzwTiFifFEMLglcymOS7VD+34DhcEAQymeWrVGd6PHInCML/qMl836Q6z8MJHkEQilGF732R6g9UE+MKgl3K8b51qb4n7rwFwR9uNNiKb3rtY6DEYRUE/ziZuVakOod2YkxB8Jc0bmWbJ6HuYIgF38OCIBhQiyfY7kqo23lcVn8FIViqMpgljoS6mEHivlsQ4sVp/Fv7DTaPeTzNqWKscCOrgclBbc6gBc1pSlUqUwHYwVayWcoiFvI9G8RE4ef/AT8XKmTrrSpMAAAAJXRFWHRkYXRlOmNyZWF0ZQAyMDE4LTA4LTMwVDA3OjMzOjA4KzAwOjAwpUiq8wAAACV0RVh0ZGF0ZTptb2RpZnkAMjAxOC0wOC0zMFQwNzozMzowOCswMDowMNQVEk8AAAAASUVORK5CYII=;" parent="1" vertex="1">
          <mxGeometry x="260" y="577.5" width="100" height="100" as="geometry" />
        </mxCell>
        <mxCell id="do6JsDz9k9hJdT36Sn_r-22" style="edgeStyle=orthogonalEdgeStyle;rounded=0;orthogonalLoop=1;jettySize=auto;html=1;entryX=0;entryY=0.5;entryDx=0;entryDy=0;" parent="1" source="do6JsDz9k9hJdT36Sn_r-9" target="do6JsDz9k9hJdT36Sn_r-12" edge="1">
          <mxGeometry relative="1" as="geometry" />
        </mxCell>
        <mxCell id="do6JsDz9k9hJdT36Sn_r-9" value="Database" style="fontColor=#0066CC;verticalAlign=top;verticalLabelPosition=bottom;labelPosition=center;align=center;html=1;outlineConnect=0;fillColor=#CCCCCC;strokeColor=#6881B3;gradientColor=none;gradientDirection=north;strokeWidth=2;shape=mxgraph.networks.server;" parent="1" vertex="1">
          <mxGeometry x="460" y="590" width="80" height="90" as="geometry" />
        </mxCell>
        <mxCell id="do6JsDz9k9hJdT36Sn_r-24" value="" style="edgeStyle=orthogonalEdgeStyle;rounded=0;orthogonalLoop=1;jettySize=auto;html=1;exitX=0.5;exitY=0;exitDx=0;exitDy=0;entryX=0.5;entryY=1;entryDx=0;entryDy=0;" parent="1" source="do6JsDz9k9hJdT36Sn_r-10" target="do6JsDz9k9hJdT36Sn_r-12" edge="1">
          <mxGeometry relative="1" as="geometry" />
        </mxCell>
        <mxCell id="do6JsDz9k9hJdT36Sn_r-10" value="Web application" style="shape=image;verticalLabelPosition=bottom;labelBackgroundColor=default;verticalAlign=top;aspect=fixed;imageAspect=0;image=data:image/png,iVBORw0KGgoAAAANSUhEUgAAAMgAAADICAYAAACtWK6eAAAABHNCSVQICAgIfAhkiAAAAAlwSFlzAAALEwAACxMBAJqcGAAADLtJREFUeJzt3XuwVlUZx/HvOUc4iCAgiGQqimWCOl4qFWvyluYdtVK85S1tLC21sUbH0rxNqU3NOOqUEaMomaZmpEl5qUzQ8VqDaBp5KUNAPQiIInJOfzznDK+Hd6+93nfvtfY++/19ZtYwvJe1nve8+3n3XnuvtTaIiIiIiIiIiIiIiIiIiIiIiIiIiIiIiIiIiIiIiIiIiIiIiIiIiIiIiIiIiIiIiIiIiIiIiIgMGG0B6jwBOAUYE6h+aW09wFvATcC0gmNp2PnYB1BRiVEuJbA8f+GHAkt6/xWJ4X1gHNAVqoH2HOvaEiWHxDUY+FjIBvJMkDzrEvHVEbJybdQiDutFaucN4M1IbUn1jALGFh1EVtuTfLbhwgLjkoHvbJK3rd1DNqxDLBEHJYiIgxJExCFWJz22ocCRwH7AtsBw9GOQRQ+wDHgemA3cCbxXaESRVC1B2oAzgB9gY8EkX7sCXwEWYydebig2nPCq9Ks6BPtluxYlR2hjgZ8Dv8auZldWVfYgbcCtwJSiA2kxR2GHX1OLDiSUquxBzkLJUZSjgdOKDiKUKiTIMODiooNocZcB6xcdRAhVOMQ6GhuKkGQl8DJ2KCDNaQO2IjkJxgJHADOjRRRJFRLkC47nfoPNblweKZYqGwncDByc8PwBVDBBqnCINTHh8WXASSg58rIUOB54N+H5SRFjiaYKCbJhwuMvAu/EDKQFLAVeSnhueMxAYqlCgixLeHwbKvqlFWg0sHXCc0nfw4BWhQSZn/D4cGAG7g68+NsY62N0Jjyf9D0MaFXopN+HXbCqZwqwEHgFncXKoh1bc2CQ4zV/iBNKXFVIkNuBq4GNEp7vxA63JJzXgd8WHUQIVTjEWgF8v+ggWtwFVHR0bxUSBOA64I6ig2hRtwDTiw4ilKokSA9wHHBb0YG0mBnAyUUHEVJVEgRgFTbs5KvYMbGE8z/gRGxuyOqCYwmqCp30/qZhu/1DsWEo22IXE6v0YxBbD/A28Bx21nAWtuxn5VUxQcA6jLf3FpGm6VdVxEEJIuKgBBFxiNUH+RpwSKS2pHrGFdVwrATZrLeIDCg6xBJxUIKIOChBRByUICIOsTrpK9D8cGneUCowfVp3mJJQdIcpkTJSgog4KEFEHJQgIg5KEBEHJYiIgxJExEEJIuKgBBFxUIKIOChBRByUICIOShARByWIiIMSRMShqkuP5q0T2Am75/o84t2tqqO33Q7gafwXil4P2KX3fU/SIuvohqA9SLpDsFu4PQr8A9vgtozQ7vbYYtFPAI8BC/CbHLQj8Hzve+b0vm+fQDFKA6o2o3A94Eqgm3U/z+OB2+7ENuz+7S4ChjneNxi7TXP/960Bvge0hQs5KM0oLJnNgD8D51F/o/oU8PGA7Z8LTKjz+FhgX8f7dqf+3q0duAS70eaYrMG1EiXIug7Ajvc/k/K6wYHa3wQ43/G8q9/ougst2P1SngYmNxpUq1KCrNUBXA7cS/qv7AKsfxDCZSSv4LECeMjx3rnAkpT6NwP+gu2lJKKB3Af5CHZIlRR/bVmCHWKFsCPWX0hq+wKPOvYCljrqqC13AiPy/ACBFNYHydNATZB9sc6vzwb1MPDRgLE84Gj7ZWCIZz0TsLNtPp/pX8DOeX2AQJQgBWgHLsb9i91XuoEfEfa60WEpMUxtsL5O4PqUOvvKu9gtKspKCRLZWOBP+G08bxL+3iaDgBccMczJUPdxWN/F57PeDGyQoa1QlCAR7Yndxthng3kU2CJCTOc4YugGds1Y/0TgWUcbtWU+MClje3lTgkTQhnVyP8BvQ/kJ6adN8zAa6HLEcXNO7WwAzHC0U1tWAMfn1G4elCCBjcEukvlsHF3AERFju8YRy0pg85zbOx3rc/j8LX6G9WWKpgQJaGfgPwlx9S9PUP8KdigTsQGISfFcEqjdnbGzVz5/k6cIe+bOhxIkkE2BxY64asu1xP+1vMcRz2uE7TCPwK6D+Pxt5gHrB4wljRIkkF86Yuory4CjCoht/5S4TooUxznYcPi0v5PPRcpQlCABDCX9WPsZwg46TNLB2nkl9cqTxB15O5n0w9AFEePpT6N5A9gJ95XnG7A/7otxwvmQ04HtHM/3nfaNZS7WL5nteM0E7PpRS6lygrgGHF6FbaTvRYql1gjcne87gb9GiqXWG8BBve0nGR0pltKocoIsczx3JnBKrED6uZDk5H0f+E7EWGq1Ad8FpjheszxSLJVUtj7IRqRfFJyO9VVi2RpY5Yjnqoix1BqNDfN3/a0WUdyMRPVBAngLuzjochI2d/sTwaMxV5I80WoJNhcktj2wkxUHprzuVuL2iyqnbHsQgB2wfkbaKczlND5atlF7psRwRuD2+2vDDudcFyr7yhvYTMei6DRvQF/EL0l6gOsIc7GwHff8jHnYqd9YNgJ+74intnSRPv04NCVIYLtQf5WQeuUJYKuc2z85pc39c27PZTLwako8feVJ4g69SaIEiWAkcBf+v5qH59TuMNzD6+/JqR0f38bvqnkPxQy9SaIEiehc/DeSH5N9FuGljvpXA9tmrN/HKOBuRxy1ZRlwdISYGqEEiWwP/Ef4PoKtBNKMzbEh60l1X9P0J/C3Gzaf3eez/h3YJkJMjVKCFGAMcB9+G84SbE2pRt3iqLOL8Femz8Z/b3kD/otCxKYEKUg7tiSnz8INa7DDJd9rR7tRf9nSvnJOXh+ijkb6W2WbPViPEqRg+wCv47dBPYCdJk0zx1HHC4Sbzrs98G9H27XlWWzSVtkpQUqgkcXj7k2p68sp73eNd8qiE//+xo00P8xmOHACtuHG2ECVICXRAVyB+9Cor2zqqMd1ePNgoNjB+klpca8k20DNSdhsx9o6XwJ+iE0xCEEJUjIHYethuTY01/it2QnvWYMtLxrKkY54e7D7huyQsY3HU9qYD1xEvmfDlCAltAW2Lla9z/MK7s560jpXvwgYL9iZuXcS2p6J+94iPkYn1J1UnsJuIZF1bTElSEkNAn7Khz/LcmBvj/f1H+v0GHEWij6WDw+pX0l+y4oOw39dsdrSjV1POpPmBj0qQUruk9iiBd/E3feo1QZ8HvgWtnRpzMGI47GkOI38l+xxLbDtUz7Aln09FTsd7UMJIgPGaWRLkNqyCvgdcAzuJY40YUoGjDvwv9tumsHAoVj/aDE2KetwyjNIUgkiDXsLO0TK21BskORd2PTe6dg0gJiHputQgkgzfuV47lls4e/XMtQ/ApsOPRtYCJyYoa7SUB+kdQwneZTyKmx4fTs2zfh6bLBnXv0W9UGk9JaTPNxmMHbBshu7WegZ2DCeA7HhLa7lmJpR5Fz5hmgP0lq+RPL37eqjdGK3l7gN91yZRsoz2JpepU4WJUhrGYLtDZKudfhsrMOwC5uzcK8X5lu6sGkGpaQEaT2uO1ad1WBdo7CLh/fT3NX6vjIvywcKSQnSeg4m+Tt/JEO9m2AJ9gh+I6v7l1IeailBWs8gkkc9d2NDXrIaj5029k2ONcCGObQL6CyWZLMau7JeTxvZV0fpwDr0jcxfuZv8z5TlQnuQ1rQPyd/70xnq3Q07O9XIodVsrC9TSkqQ1tSOXe1O+u6bWfdrb/xXY+kB/kug2+jpEEuy6gZudzzfzKLgl+O3qMVq4GosCW9rop2otAdpXZNJ/u7/2UR9XY76+sqD2Pz4oLQHkTzMxVZTqWcbbPHwRqTdN3Ip1nGf32C9DVOCSF5chziNHmZdhB26JRmJLdG0ZYP1FkqHWK1tJ5K//1dp/PZtJ5K+4uXLDKAkUYLIcyRvA5+t8/qR2Cjfz1F/Ff3CkyTr0v6+xhFuUTEpj7kkn9adCvyt5v9TgJtYe9X7hd7Hnq95zY3Ynmcayd2B8djh1l4k94NKwbUHUVFZxNrps1tgi2b3f81C6ifYyaTvSV7Cb83kwihBVNLKfhjX0qxZkiT3Q3mdxZKYjsFGALtubzcOeIh1k2R6b3HZrvnQwptA8b9QKuUuS/G/mWr/PclxpM8TuYQSa8Oumhb9JahUp/QliU9yLCTAPJBGz02n+TQ2mX9MzvVK63oTOx3sWh9rMTbAMfcr63knCNiHOQzYOFD9Un4d2IDDGIu+BUsOkZDux/9Q6n6am1q7iAgDFkVCOBW/jXw+NrT9656vV3JIJYzCbymf2nut+CaJkkMqYRbuDX1mnfd8I+U9Sg6pjGNJ3tDfxpYkrScpSZQcUikbUH/MVQ92UxyX04H3al6/ACWHVNB5rJscD+M3knwctgbw/tii2CKVdBTwR2AOcDF2sxwRERERERERERERERERERERERERERERERERERERERERERERERERERERERERERERERERERERERHJ1/8B4shN4Mil7HgAAAAASUVORK5CYII=;" parent="1" vertex="1">
          <mxGeometry x="560" y="577.5" width="120" height="120" as="geometry" />
        </mxCell>
        <mxCell id="do6JsDz9k9hJdT36Sn_r-25" style="edgeStyle=orthogonalEdgeStyle;rounded=0;orthogonalLoop=1;jettySize=auto;html=1;entryX=1;entryY=0.5;entryDx=0;entryDy=0;" parent="1" source="do6JsDz9k9hJdT36Sn_r-11" target="do6JsDz9k9hJdT36Sn_r-12" edge="1">
          <mxGeometry relative="1" as="geometry" />
        </mxCell>
        <mxCell id="do6JsDz9k9hJdT36Sn_r-11" value="Other security &#xa;components" style="shape=image;verticalLabelPosition=bottom;labelBackgroundColor=default;verticalAlign=top;aspect=fixed;imageAspect=0;image=data:image/png,iVBORw0KGgoAAAANSUhEUgAAAgAAAAIACAMAAADDpiTIAAAAA3NCSVQICAjb4U/gAAAACXBIWXMAAA6PAAAOjwHjOWJ6AAAAGXRFWHRTb2Z0d2FyZQB3d3cuaW5rc2NhcGUub3Jnm+48GgAAAtBQTFRF////AAAAAAAAAAAAAAAAAAAAAAAAAAAAAAAAAAAAAAAAAAAAAAAAAAAAAAAAAAAAAAAAAAAAAAAAAAAAAAAAAAAAAAAAAAAAAAAAAAAAAAAAAAAAAAAAAAAAAAAAAAAAAAAAAAAAAAAAAAAAAAAAAAAAAAAAAAAAAAAAAAAAAAAAAAAAAAAAAAAAAAAAAAAAAAAAAAAAAAAAAAAAAAAAAAAAAAAAAAAAAAAAAAAAAAAAAAAAAAAAAAAAAAAAAAAAAAAAAAAAAAAAAAAAAAAAAAAAAAAAAAAAAAAAAAAAAAAAAAAAAAAAAAAAAAAAAAAAAAAAAAAAAAAAAAAAAAAAAAAAAAAAAAAAAAAAAAAAAAAAAAAAAAAAAAAAAAAAAAAAAAAAAAAAAAAAAAAAAAAAAAAAAAAAAAAAAAAAAAAAAAAAAAAAAAAAAAAAAAAAAAAAAAAAAAAAAAAAAAAAAAAAAAAAAAAAAAAAAAAAAAAAAAAAAAAAAAAAAAAAAAAAAAAAAAAAAAAAAAAAAAAAAAAAAAAAAAAAAAAAAAAAAAAAAAAAAAAAAAAAAAAAAAAAAAAAAAAAAAAAAAAAAAAAAAAAAAAAAAAAAAAAAAAAAAAAAAAAAAAAAAAAAAAAAAAAAAAAAAAAAAAAAAAAAAAAAAAAAAAAAAAAAAAAAAAAAAAAAAAAAAAAAAAAAAAAAAAAAAAAAAAAAAAAAAAAAAAAAAAAAAAAAAAAAAAAAAAAAAAAAAAAAAAAAAAAAAAAAAAAAAAAAAAAAAAAAAAAAAAAAAAAAAAAAAAAAAAAAAAAAAAAAAAAAAAAAAAAAAAAAAAAAAAAAAAAAAAAAAAAAAAAAAAAAAAAAAAAAAAAAAAAAAAAAAAAAAAAAAAAAAAAAAAAAAAAAAAAAAAAAAAAAAAAAAAAAAAAAAAAAAAAAAAAAAAAAAAAAAAAAAAAAAAAAAAAAAAAjcMAnQAAAO90Uk5TAAECAwQFBgcICQoLDA0ODxAREhMUFRYXGBkaGxwdHiAhIiMkJSYnKCkqKywtLi8wMTIzNDU2Nzg5Ojs9Pj9AQUJERUZHSUpMTU5PUFFSU1RVVldZWltcXV9gYWJjZGVmZ2hpamxtbm9wcXJzdHV2d3h5ent8fX5/gIGCg4aHiImKi4yNjo+RkpOUlZaXmJmam5ydnp+goaKjpKWmp6ipqqutrq+wsbKztLW2uLm6u7y9vr/AwcLDxcbHyMnKzM3Oz9DR0tPU1dbX2Nna29zd3+Dh4uPk5ebn6Onq6+zt7u/w8fLz9PX29/j5+vv8/f55IfRLAAARgElEQVR42u3d+3+WdR3H8WsbG4PhhiIgEjQwcZzyFIxDEockwAMigkOy1ETCQrQEsjgYCOUpSRumuXUgZSDGZGToTMRChymMQOYBEIEBN9z3/f0X+iHr0UFx2/fzvb6H6/X+C+735/OEXfd1X4coSlLade1XPn76rIUrH6/Z0vDe8RMf5/h7DVtqHl+5cNb08eX9uraLSHApGDxtcc3Ow6pFObyzZvG0wQVMLYjklE78ftX2U6rVObW96vsTS3OYoL8pGn3bqpeOKK0ceWnVbaOLmKV/GTS3NqWEkqqdO4iJepQzpzz2jhLOO49NOZPJepDcoQu2pJWRpLcsGJrLhF3OORVP7VdGs/+pinOYs6Nf9a7ZkFExJLPhGr4iupcLlr2vYsv7yy5g4i6lY8ULKua8UNGRuTuSix88pCzk0IMXM3v7KbnlFWUtr9xSwgasZmBls7Ka5sqBbMFa+j2VUdaTeaofm7CSvqvTyomkV/dlG7Gn96pTypmcWtWbjcSacx9IKaeSeuBcthJbuq84rpzL8RXd2Uws6bK0WTmZ5qVd2I7xFMw/rJzN4fn8SmA4I95QTueN4ezIYIofzCrHk73/DPZkKpP2Kg+yZwKbMpJzfqM8SRXfB+STc+OHypscuIGFCecLm5RX2cjZYcm0u+u48izH5uaxN6kMfk15mFf6szmZTGtWXubIFHYnkPyVytss405j/S9/LyiPU9eNDWqe+t2nvM7ecnaok1tPKs+TuoUttjkdfqkCyOoObLJt6bNNBZFXS9llW3L5QRVIDl7ONlt/7n9BRgWTzAIeNdPK5D6qgsqjPFigdWd/qlVgqc5nqy1PYY0KLjWF7LWl6fS8CjDPd2KzLUvnF1WQebEzu21Jum1TgWYbvwy0ID0bVLBp6Ml+P/P03y4VcHb1YcOnT/93VNB5h8uETpuLP1CB5wMeLHSaDDqkgs8hHjv86cd/e1QCsocjwU/JGdtUIrKNuwc/Me2eVQnJs1wr+klZpRKTVWz7//M9laB8j33/b67LJglA9jo2/t+5LKUSldRl7Pw/c8FBlbAc5IHz/5Huu1TisounSPw7HV9WCczLvHDg4+T8XiUyv+dS4X9mjkpo5rD7KIqii1JJBZC6iO1HUccdKrHZwWFAFP1cJTg/Z//XqETnmqTvv/eHyQbwYcLfNJFn5QEwTZtW3Tt/9szJXx02sHfvgcO+Onnm7Pn3rtrUZOOzvJDsp8ktjHfaJxvWLK4Y+qmveisZWrF4TUPMDyVZmOT9j4jxtU8n6uaPaNENmvkj5tediO9zpUckd/+dG+Macv2iMa16UEuHMYvq48LZmNw7xuK5B/x41aTitny64klV8Tygtjqp+58Zx3RfvEnjH1jnm2K5T3VmMvff1fxNAHsWab/Vs98i89eqH+rKKUADya4ZJ/Jcltxxa0xfrpbIE4JfMjvVzK8Hy33Wwb82+8Sq7JeSt/+cl4we9j9ZJvtxy540+qXgpeRdGjDD4DhPVZ4v/4HPrzT5suIZSdt/8bvmhvm4oZvw+zxu7jO/W5wwAMuNjbJhlLlPPcrc00uWJ2v/ZaZOuB83+/LWgvmmzg2dLEsUgOcMjfG580x/8vOMffQk7f9KQ39Ip8bx4acaOny5Mjn7L9xlZIJVMf2q0rnKyMfflZxHiS4w8nPvt+Ir8C0jPxcvSMr+ex8zML2dl8RZ4ZKdBiocS8rlYSaeBPG7kng7lPzOQImEPDeih/z/nyct3GMzR/6b7IkeiQCwVHxwdt7NVr5XvMjSJOy/5CPxc3+97DTpJX5e8KOSBACYJz21+i62qnSpl+4yL/z9t5e++n5Dkb0yRRuEyzS1Dx7AN6TP/hTYbFMgfU7oG6HvP/dvsgO73/LbuHLvl+3zt9DfLna17LwcuK1G+OamqwMHIPs0oB+7UOnHopVeDnv/XxEd1pNOXEmX86Roqa8EDUD0edAbC9woVbBRstWzIe//QslJverMZXTFr0r2ujBgAL+S/PncoRPnPSQvcPhVuPs/U/B5YPv7udSs3365ZqkzgwXwTcHf/4a7VW244G+D3wwWwGa5ITn3jEXBp11uDnX/veTuBnzavXZPi5XL9goUwB1iI9p9lnvtztotVu+OQAG8JjWgU8NdrDdc7N7B18Lc/8DQ/4XI/Q83MEgAi6XGs97Re6lz1ks1XBzi/nOkHgm272xXK569T6hiY4iPCxgp9c/jWnc7XivVcWSAAB4Wmk2tyyVrhUo+FN7+8w8InQJ0+jZqqdveD+QHB2CC0L+Ne92uea9QzQnBARC6enJvJ7drdhK6W6QqtP0XCt0QOsX1olNkeh4L7V7xUUIXAbnfVOjyoFGBAfiByFQy/d1v2l/mmZI/CAxAnchUvHiutswz0OsCOwSQuSX8iz50/aJI1RNhHQTIHALU+FG2hoMAQ4cAw/woO4yDADOHAM/70vZ5DgKMHAKM8aXuGA4C/icid4TV+9NX5MERId0jdo/EQK7wp+8VEn3vCQiAxPXg73r0is08iafJBnR1uMghwAqfGq/gIED8EOASnxpfwkGA9CHAG35VfoODAOHvxXf5VfmuJJ33+MwIPBku69mDlHsL3AbXFMr+i5N4Xkzi3GcoL5K6VGAWX/et9NcFSl8aCIBp+qNIe/eK9c4CL5qcxpcAD08DC54ODuVrgMAFwR7eLCdwK2QolwZv1R/FWP9aj9VvvTUQAEe1J5Hq6F/rjvpPxDoaxv57JvR3EYFfwHoGAUDgl4CFPvYWeIp0GL8G3JzQu6UF7oe/OQgA92nPobnAx94FzdrF7wsCwLqkXh+pfzZ4XRAA3tKew8N+Ftd/JMZbIey/QP+c6Bw/m+s/PDRdEACAXvrHQuP9bD5ev3kIzwwt0x9DXz+b99VvXhYAgCH65wHz/Gyep38ucEgAAEZrT+F1X6u/rl19dAAAJmlPYY2v1ddoV58UAAD9y0GW+Fp9CZeERBJngm/0tfqNnAuOoui72lO4ytfqV2lX/24AAPQvCBvra3X9a0JCuChsufYUyn2tXq5dfXkAAB7RnkJ/X6v3167+SAAA9F8W6e35UP2z4CG8RHKt9hRKfK1eol19bQAANmlPIc/X6nna1TcFAODPCb42Vvt66D8HAGBHgm+S1b4tekcAAHbpDqHR3+7a78naFQCARgAksjtDAABDAAAAAAAAAAAAAAAAAAAAAAAAAAAAAAAAAAAAAAAAAAAAAAAAAAAAAAAAAAAAAAAAAAAAAAAAAAAAAAAAAAAAAAB0BwDdGQLdGQLdGQLdGQLdGQLdGQLdGQLdGQLdGQLdGQLdGQLdGQLdGQLdGQLdGQLdGQLdGQLdLSa/z9Dyf0X7kelN5d5GsPvQPvl+7L7n3F/U7U4rIp707rpfzO3p9vbzJjzD7s0qeGaCu2/Q6bBwLxsyn70LO7i5/yE7WE482THExeO+H/Gff3x/CH7k3BFh/62sJc5sdex1qgP2s5N4s3+AS/vvu4+NxJ19fd3Zf69G9hF/Gp15p3L3N9mGjbzZ3Y39525hF3byp1wnAMxhE7Yy24kDwGYWYStHP29//zmb2IO9PGcfwM1swWZusL3/LodZgs0cLLEMYB47sJs5li8A2M0K7Gan3a+CV7EB25loFQBfAayn1ub+BzF/+xloEcBKxm8/Ky0C2M747We7vf2fnWX89pM92xqAK5m+C7nSGoAVDN+FrLAGgAtBnchWW/svyTB8F5Kx9XtAObN3I+WWAHyN0buRr1kCcAOjdyO2LgqYy+jdyFxLAJYyejey1BKARxm9G3nUEoCnGb0beZqLAZKdTZYA1DF6N1IHAAAAAAAAAAAAAAAAAAAAAAAAAAAAAAAAAAAAAAAAAAAAAAAAAAAAAAAAAAAAAAAAAAAAAAAAAAAAAAAAAAAAAAAAAAAAAAAAAAAAAAAAAAAAAAAAAAAAAAAAAAAAAAAAAAAAAAAAAAAAAAAAAMDoAUAA4GGyf699+DsTL7rw41w04faHNu7OACARAJqfuHpg4SfVKRxw1eojAAgbQGZjRafTVSqaviEDgGABvD7vc5/d6ty5fwFAkADeHt/SYuPeBEBwAI4vLGx5s/Z3HwNAWADW9Wldt9K1AAgIQOOk1reb1AiAUADUFLWlXlENAMIAUNmubf3aVQIgBAAar1VcCgDvAWRv16l4exYAfgM4OV2v4/STAPAZQHaibsmJWQB4DOCH+i1/CAB/AdTm6rfMrQWArwD2dZOo2W0fAPwEkP6yTM8vpwHgJYB5UkXnAcBHAOtzpIrmrAeAfwAyZXJNyzIA8A7AE5JVnwCAbwDS50tWPT8NAM8ArJbtuhoAfgE4dZ5s1/NOAcArAI9Jl30MAD4BSJdKly1NA8AjAH+Ub/tHAHgE4E75tncCwCMAg+XbDgaAPwD2mqi7FwDeAHjERN1HAOANgCtM1L0CAL4ASHUyUbdTCgCeANhspu9mAHgCoNJM30oAeAJgkZm+iwDgCYBZZvrOAoAnACab6TsZAJ4AGGGm7wgAeAKg1EzfUgB4AqDQTN9CAPgB4JCpwocA4AWAlKnCKQD48SfgLDN9z+JPgCcABpjpOwAAngAYY6bvGAB4AuB6M32vB4AnAO4w0/cOAHgCYIWZvisA4AmAKjN9qwDgCYB6M33rAeAJgExXE3W7ZgDgCQA1w0TdGQoAvgD4rYm6vwWANwCOtJdv2/4IALwBoC6Xb3u5AoA/AB6Sb/sQADwCsEe+7R4AeARADZcuO1wBwCcAtdJlawHgFQA1TrbrOAUAvwBszZGsmrMVAJ4BUFMlq05VAPANwM58uab5OwHgHQB1q1zTWxUA/APwXrFU0eL3AOAhALUuV6Zn7joFAB8BqGUyPZcpAPgJQM2UqDlTAcBXAKmR+i1HpgDgLQD1QaluydIPFAD8BaD+eoZexzP+qgDgMwBVodexQgHAbwCa14fOAAAAAAAAAAAAAAAAAAAAAAAAAAAAAAAAAAAAAAAAAAAAAAAAAAAAAAAAAAAAAAAAAAAAAAAAAAAAAAAAAAAAAAAAAAAAAAAAAAAAAAAAAAAAAAAAAAAAAAAAAAAAAAAAAAAAAAAAAAAAAAAAAAAAAAAAAAAAAAAAAAAAAAAAAAAAAAAAAAAAAAAAAAAAAAAAAAAAAAAAAAAAAAAAAAAAAAAAAAAAAAAAAAAAAAAAAAAAAAAAAAAAAAAAAAAAAJIHYLZex9kA8BzAEr2OSwDgOYDVeh1XA8BzAI16HRsB4DkAdalOxUsVAHwHsEyn4jIAeA/gaI+2N+xxFADeA1A/a3vDnykA+A8gPbqtBUenARAAAHWgb9v69T2gABACANXQqy31ejUoAIQBQDUNaX27IU0KAKEAUMcWFLWuW9GCYwoA4QBQqum27i1v1v22Jp+6AaBFyWy+u2LMhZ+ZMRV3b8741QwACQ8AAAAAAAAAAAAAAAAAAAAAAAAAAAAAAAAAAAAAAAAAAAAAAAAAAAAAAAAAAAAAAAAAAAAAAAAAAAAAAAAAAAAAAAAAAAAAAAAAAAAAAAAAAAAAnD4bGb0b2WgJQDWjdyPVlgA8wOjdyAOWANzD6N3IPZYAzGL0bmSWJQBTGb0bmWoJwFhG70bGWgIwiNG7kUGWAOR9xOxdyEd5lgBE6xm+C1lva//RnQzfhdxpDcAwhu9ChlkDkN/M9O2nOd8aAH4OciEb7e0/+jbjt59vWwTQmb8B1nO0xCIAX96rFnIetLl/TgbaT5lVAFwWZjt/sLv/aDIrsJsJlgG0284ObObVXMsAoqEZtmAv6Ysj67mPNdjLUvv7jzruZA+28lYHBwBEo7Nswk6yoyIn8lNWYSc/cWP/US53iFhJda4jAKL8tWwj/qzNj5xJYS37iDu1hZFDKdrCRuLNlqLIqRQu57tAnMf/ywsj1zKqkb3ElcZRkYMprmQz8aSyOHIzl1WfZDumc7L6ssjddJv3NisymbfndYvcTs7Im5ZU17/PqqTzfn31kptG5kjv6x+Ng/RtvYrM4gAAAABJRU5ErkJggg==;" parent="1" vertex="1">
          <mxGeometry x="700" y="595" width="80" height="80" as="geometry" />
        </mxCell>
        <mxCell id="do6JsDz9k9hJdT36Sn_r-31" style="edgeStyle=orthogonalEdgeStyle;rounded=0;orthogonalLoop=1;jettySize=auto;html=1;entryX=1;entryY=0.5;entryDx=0;entryDy=0;" parent="1" source="do6JsDz9k9hJdT36Sn_r-12" target="do6JsDz9k9hJdT36Sn_r-13" edge="1">
          <mxGeometry relative="1" as="geometry" />
        </mxCell>
        <mxCell id="do6JsDz9k9hJdT36Sn_r-12" value="SIEM" style="text;html=1;align=center;verticalAlign=middle;whiteSpace=wrap;rounded=0;" parent="1" vertex="1">
          <mxGeometry x="590" y="430" width="60" height="30" as="geometry" />
        </mxCell>
        <mxCell id="do6JsDz9k9hJdT36Sn_r-32" value="Managed by" style="edgeStyle=orthogonalEdgeStyle;rounded=0;orthogonalLoop=1;jettySize=auto;html=1;" parent="1" source="do6JsDz9k9hJdT36Sn_r-13" target="do6JsDz9k9hJdT36Sn_r-26" edge="1">
          <mxGeometry relative="1" as="geometry" />
        </mxCell>
        <mxCell id="do6JsDz9k9hJdT36Sn_r-42" value="Components" style="edgeStyle=orthogonalEdgeStyle;rounded=0;orthogonalLoop=1;jettySize=auto;html=1;exitX=0.75;exitY=0;exitDx=0;exitDy=0;entryX=0;entryY=0.5;entryDx=0;entryDy=0;" parent="1" source="do6JsDz9k9hJdT36Sn_r-13" target="do6JsDz9k9hJdT36Sn_r-37" edge="1">
          <mxGeometry relative="1" as="geometry">
            <Array as="points">
              <mxPoint x="440" y="320" />
              <mxPoint x="440" y="260" />
            </Array>
          </mxGeometry>
        </mxCell>
        <mxCell id="do6JsDz9k9hJdT36Sn_r-13" value="XDR&amp;nbsp;" style="text;html=1;align=center;verticalAlign=middle;whiteSpace=wrap;rounded=0;" parent="1" vertex="1">
          <mxGeometry x="320" y="320" width="130" height="30" as="geometry" />
        </mxCell>
        <mxCell id="do6JsDz9k9hJdT36Sn_r-20" value="" style="edgeStyle=orthogonalEdgeStyle;rounded=0;orthogonalLoop=1;jettySize=auto;html=1;entryX=0.5;entryY=1;entryDx=0;entryDy=0;" parent="1" source="do6JsDz9k9hJdT36Sn_r-14" target="do6JsDz9k9hJdT36Sn_r-15" edge="1">
          <mxGeometry relative="1" as="geometry" />
        </mxCell>
        <mxCell id="do6JsDz9k9hJdT36Sn_r-14" value="AV" style="text;html=1;align=center;verticalAlign=middle;whiteSpace=wrap;rounded=0;" parent="1" vertex="1">
          <mxGeometry x="80" y="620" width="60" height="30" as="geometry" />
        </mxCell>
        <mxCell id="do6JsDz9k9hJdT36Sn_r-21" value="Managed by" style="edgeStyle=orthogonalEdgeStyle;rounded=0;orthogonalLoop=1;jettySize=auto;html=1;entryX=0.5;entryY=1;entryDx=0;entryDy=0;" parent="1" source="do6JsDz9k9hJdT36Sn_r-15" target="do6JsDz9k9hJdT36Sn_r-16" edge="1">
          <mxGeometry relative="1" as="geometry" />
        </mxCell>
        <mxCell id="do6JsDz9k9hJdT36Sn_r-15" value="EDR + AV" style="text;html=1;align=center;verticalAlign=middle;whiteSpace=wrap;rounded=0;" parent="1" vertex="1">
          <mxGeometry x="80" y="530" width="60" height="30" as="geometry" />
        </mxCell>
        <mxCell id="do6JsDz9k9hJdT36Sn_r-29" style="edgeStyle=orthogonalEdgeStyle;rounded=0;orthogonalLoop=1;jettySize=auto;html=1;entryX=0;entryY=0.75;entryDx=0;entryDy=0;" parent="1" source="do6JsDz9k9hJdT36Sn_r-16" target="do6JsDz9k9hJdT36Sn_r-13" edge="1">
          <mxGeometry relative="1" as="geometry" />
        </mxCell>
        <mxCell id="do6JsDz9k9hJdT36Sn_r-16" value="MDR" style="text;html=1;align=center;verticalAlign=middle;whiteSpace=wrap;rounded=0;" parent="1" vertex="1">
          <mxGeometry x="80" y="440" width="60" height="30" as="geometry" />
        </mxCell>
        <mxCell id="do6JsDz9k9hJdT36Sn_r-33" value="" style="edgeStyle=orthogonalEdgeStyle;rounded=0;orthogonalLoop=1;jettySize=auto;html=1;entryX=0.5;entryY=1;entryDx=0;entryDy=0;" parent="1" source="do6JsDz9k9hJdT36Sn_r-26" target="do6JsDz9k9hJdT36Sn_r-27" edge="1">
          <mxGeometry relative="1" as="geometry" />
        </mxCell>
        <mxCell id="do6JsDz9k9hJdT36Sn_r-26" value="MXDR" style="text;html=1;align=center;verticalAlign=middle;whiteSpace=wrap;rounded=0;" parent="1" vertex="1">
          <mxGeometry x="355" y="230" width="60" height="30" as="geometry" />
        </mxCell>
        <mxCell id="do6JsDz9k9hJdT36Sn_r-36" style="edgeStyle=orthogonalEdgeStyle;rounded=0;orthogonalLoop=1;jettySize=auto;html=1;entryX=0.5;entryY=1;entryDx=0;entryDy=0;" parent="1" source="do6JsDz9k9hJdT36Sn_r-27" target="do6JsDz9k9hJdT36Sn_r-28" edge="1">
          <mxGeometry relative="1" as="geometry" />
        </mxCell>
        <mxCell id="do6JsDz9k9hJdT36Sn_r-27" value="EDR + SIEM + SOAR" style="text;html=1;align=center;verticalAlign=middle;whiteSpace=wrap;rounded=0;" parent="1" vertex="1">
          <mxGeometry x="302.5" y="130" width="165" height="30" as="geometry" />
        </mxCell>
        <mxCell id="do6JsDz9k9hJdT36Sn_r-28" value="SOC" style="text;html=1;align=center;verticalAlign=middle;whiteSpace=wrap;rounded=0;" parent="1" vertex="1">
          <mxGeometry x="355" y="30" width="60" height="30" as="geometry" />
        </mxCell>
        <mxCell id="do6JsDz9k9hJdT36Sn_r-37" value="&lt;font style=&quot;font-size: 16px;&quot;&gt;-&amp;nbsp; Correlate -&amp;gt; ASM&lt;/font&gt;&lt;div style=&quot;font-size: 16px;&quot;&gt;&lt;font style=&quot;font-size: 16px;&quot;&gt;-&amp;nbsp; Analyze (A.I., UBA) -&amp;gt; VM&lt;/font&gt;&lt;/div&gt;&lt;div style=&quot;font-size: 16px;&quot;&gt;&lt;font style=&quot;font-size: 16px;&quot;&gt;-&amp;nbsp; Investigate, threat hunting&lt;/font&gt;&lt;/div&gt;&lt;div style=&quot;font-size: 16px;&quot;&gt;&lt;font style=&quot;font-size: 16px;&quot;&gt;-&amp;nbsp; Respond (SOAR)&lt;/font&gt;&lt;/div&gt;" style="text;html=1;align=center;verticalAlign=middle;whiteSpace=wrap;rounded=0;labelPosition=center;verticalLabelPosition=middle;" parent="1" vertex="1">
          <mxGeometry x="510" y="180" width="220" height="160" as="geometry" />
        </mxCell>
        <mxCell id="do6JsDz9k9hJdT36Sn_r-43" value="SPoG" style="text;html=1;align=center;verticalAlign=middle;whiteSpace=wrap;rounded=0;" parent="1" vertex="1">
          <mxGeometry x="770" y="310" width="60" height="30" as="geometry" />
        </mxCell>
        <mxCell id="do6JsDz9k9hJdT36Sn_r-44" style="edgeStyle=orthogonalEdgeStyle;rounded=0;orthogonalLoop=1;jettySize=auto;html=1;entryX=1.018;entryY=0.631;entryDx=0;entryDy=0;entryPerimeter=0;" parent="1" source="do6JsDz9k9hJdT36Sn_r-43" target="do6JsDz9k9hJdT36Sn_r-37" edge="1">
          <mxGeometry relative="1" as="geometry" />
        </mxCell>
        <mxCell id="ATZNOSKyb4ENtHDWsNNq-3" value="Feed" style="edgeStyle=orthogonalEdgeStyle;rounded=0;orthogonalLoop=1;jettySize=auto;html=1;entryX=0.5;entryY=1;entryDx=0;entryDy=0;" edge="1" parent="1" source="ATZNOSKyb4ENtHDWsNNq-1" target="ATZNOSKyb4ENtHDWsNNq-2">
          <mxGeometry relative="1" as="geometry" />
        </mxCell>
        <mxCell id="ATZNOSKyb4ENtHDWsNNq-1" value="Other threat &#xa;related information" style="shape=image;verticalLabelPosition=bottom;labelBackgroundColor=default;verticalAlign=top;aspect=fixed;imageAspect=0;image=data:image/png,iVBORw0KGgoAAAANSUhEUgAAAgAAAAIACAYAAAD0eNT6AAAACXBIWXMAAAsTAAALEwEAmpwYAAAgAElEQVR4nO2dCbglVXXv1606d+ju2zPdbSO2DaIMIgiiaOPwNCBEudriJYKKKPGpmDhGRaMCRhCcNQ55xiQOQRxwjCYYxdk4gkpQwRFHBCeCjDLlrX3POdc651Sd2rtqV+219vmv71tfnvQ7v13/2mvv9T9161TRYYf9nxnOaU6qEuZzvc/PZBI88MADDzzwwJPMi0oMeOCBBx544IFnDwk2OHjggQceeOCBF5QXdHDwwAMPPPDAA699XtDBwQMPPPDAAw+89nlBBwcPPPDAAw888MLwgg4OHnjggQceeOCF4QUdHDzwwAMPPPDAC8MLOjh44IEHHnjggReGF3Rw8MADDzzwwAMvDC8qMeCBBx544IEHnh0vKjHggQceeOCBB15FXlRiwAMPPPDAAw88NH/wwAMPPPDAA0/S4OCBBx544IEHHpo/eOCBBx544IHXMC8qMeCBBx544IEHnh0vKjHggQceeOCBB54dLyox4IEHHnjggQeeHS8qMeCBBx544IEHnh0vKjHggQceeOCBB541IB4x4IEHHnjggQeePSTY4OCBBx544IEHXlBe0MHBAw888MDTw9ux414zU1NT+/E/n8T595zncn6S86Oc/8p5CudRnGti0BszL+jg4IEHHnjg6eCtXbvm9kmS/B3/02Wc/2uRN3F+mPNIjXpj5wUdHDzwwAMPPPm8XXfdui5N0zP5W/91ZNf48/JrMzMzh2rQOym8oIOD58xbzbmesyP0+MADD7zIeHNzs/fkxv89zqqNfynN5zlvTdPkrH333WulVL2TxAs6OHhjeabRn8h5NuclnH+kwcV0ZZIkn2NX/rLZ2Zn7RqAXPPDAE8abnp7eab71e2r+y8l7178ze6U0vZPGCzo4eLmxD+c7OG8ky8XUW5zfpa5hsHN1cvSCBx54AnncoB/Oe8tNvpt/hnc+56wUvZPICzo4eAOxivO1nDdTtcXUz29z3leBXvDAA08ob25u9uAmvvnn8N4uQe+k8qISo5i3N+d3qP5i6uctnC/knBKqFzzwwBPK2223Xdfy3nJpC82/n48NqXeSeVGJUcq7J+dvyd9iyuZbORNhesEDDzzBvDRNT2+x+Zv8NeeGUHrBkzL45PHuyvk7aqb59/PvBekFDzzwBPPWrVu7lfeXa6m95t/P00PoBU/K4JPHM0/I+j412/z7eaIAveCBB55wXpomL6b2m7/JqzhXtK0XPAmDTybvn6id5m/S3MyzPbLzBx544HnmkcWXkqL0sF8d27Ze8EIPPpm8e3HeRu00/6VMkuSDEZ0/8MADzzOP95i9KFzzN/mvbeoFL/Tgk8szL8xorfn3GLeZn/ZEcv7AAw88/zzzp8JQzd/kT5SfP328qMTo4G2nMd/+G2r+/advvTWC8zcc85xbODfMcgg8PvDi4pkH15g71k3NzQs8vjq8V1K45m/yti1bNq9TfP708aISo4P3AgrQ/Hv5+/n5VZ2W9frmHcJp7hj+Ag39gsJc5eD8CRudj6Zp+mzWuj2CegEvLO8OnM+k7lW7n9KoeTc/4f0850tnZmbuo1zvu6je/lJ7v1q5csU+is+fPl5UYnTwPkVhmn//3+7Tsl4fPGNaTqDuUw5d9N7K+W+c91amt2neRs4DDcokn6sD165deztBxyeBt4PzY9StIev1liRT3+50Ok/Yb79955TpNfFhG63U4H41Nzd7L6X1opMXlRj5PPNkvj9QuOZv8hkt6vXBMzdMfquGXpPmW5u5wWgXBXqb4JnL1ouc53BeTsXn7/IkSd7NDewY8+eUFo9PEm8Tdc9T3fX2Dc6DFejNhpXuJverFStW3FVZvejmRSVGPu92FLb5m3xji3rr8syl15tq6s3mz2nM1QABen3zzNvWzJ+criT383cF5/No6LfZwvXW5R3K+Uvyt97MGzyfJljvcLyppt7a+9XatWu2KqoX/byoxMjnmSf/hWz+Jt/dot46vFd70juc13H+uUC9vnmHc15G9c/fjzgfpEBvXd5RnNeT//Vm8hUC9ebF33jSW/X8XbVp08aRR5c3qBc8CYNPEO8gCtv8TX6oRb1VeS/1qDcvzUa//MZEAXp9806hkr9dO54/83KpFwjWW5dn/h83UDPrrZ+nCNJbFId61Fvl/H28Zb3ghR58wnh7UNjmb/JtLeqtwnukZ71FaS5xbxWg1yfP3GPS5GXc1wvT64O3G+dvqNnmb9Lch/IwAXrHxRzn1Z70Vjl/J7esd+J5QQefNF6apmsDN3+Tr2xLbwXeZs7fe9Y7Lj8muV4q8M6g5s3T8jdZAXp98D4xRqvv82eMxsbAesti4BHlLe5X5irTbgH0TjQv6OCTyOOC/0nA5m/y+Db1OvL+uQG9Y3nT09M7JdeLA28ntfN4aTPGnwvQ64N3tIt2T+fvHwLqtYlDPOu1PX//FkjvRPOCDj6JvCRJ3hew+Zvcs029DrztNOaO/6Y2oySZukByvVjy1tOYO/3J//m7fOPGDRs1rLcxPPPnkm/aavZ4/v7INXcHAettXHyo5eZv7lc5IJTeSeYFHXwSeZ1O5/EBm/8lbet14L2sAb1WvJmZmUOl1osl77XUXvNf+nyaJq/UsN7G8ApveBtO3+ePvwScLmC9FfJWrJjblzVe1+KVyn8MqXeSeUEHn0Te1q1b1lLOjTa2WXMzGrjJRtj5+0kDem15rwug1xfPPLjG/LSxbfN0zYYN67dIX29jeKU3S1Jz5+8HAtbbWF6nkz6lpeb/Xc5VofVOKi8qMYp4r6L2m78xHZsC6S2LOzeg14X3nZb1+uQ9i9pv/r2rAOkzlKy3vPgehWn+S7lq1cq7SN+vkiR5iy+9Befv15z7SNE7ibyoxCjimbeJjb3bfTg9bEYvCqi3LI5rQK8Lz9zYNvBmt4b1+uR9hcKZp88H0OuDt5bq1Uvt89fpdI6Tvl/1HsrzLz705pw/8yKvu0vSC17owSeL9wRqr/lfTL1Hugo9f6d41lvl/GncjNZw3jyspcXzZ27atDZOHvT64t1jWCO1f/5e2KLeOjxzs6R5CNQtNfVm07zb405C9U4uLyoxOnhnU/PN/1rOfYXoLYrXedRb9fz9WYt6ffFGbmQLcP4OaVGvL97hVF2vr/P3mhb1+uDdn7pfJOrUi3k3gnks8koFeieLF5UYPTzzrfx8am4zupHzCEF6i+IfPOmtc/5G3g/QoF5fvMdRdb2+zt+jW9Tri/eQHB1tn783t6jXF8+8lvuDVL1eDlSmdzJ4UYnRxzNu2DwD2/dmdA3nQwXqzYtXBW7+Jgtf3Sr4/D2Nquv1df6e2qJeX7x7DusIcP5KXxDkUa9P3vLVOnI/f+taOD7w0PzV8VLqPsZ16QUuHjYj83t/6Zf9l3lpmj4vcPM3mfsYUuHn7xkUtvmbHPu6W6HnbxtV1+vr/D2zRb0+eSMGwOH8lRoAgXrj5kUlRjmPF849Ob9aYzMyvwd/MXVf6iFeb5/H8fDAzd88RW+qLb2+eByPE3Dl5DFt6fXIM3O99AKggOfvyBb1+uQNGADH8zfWAAjVGzcvKjER8MzDVWpsRq/VptdweppvDdT8TZ7bpl5fvOnpzlECrpwc3pZenzyO9wds/uaO+rVt6vXIq3PDbqEBEKw3bl5UYiLgZQ0AuW9Cr9Gmt5+s90sV9Ppo/iY/Q72rJm3p9cFbu3bN7QM3f/P8hOW32zWt1xdvZmZ6RZJMfS6gefpcm3o985YMQMV6yTUAwvXGzYtKTAS8vgGgahvRa7Tp7fP4n55cUbOvy7jm1xirtJ0/1vrDgFdOLm1bb13e9HRnFTf/Twe+cvLEtvT65nG8rka9jBgA6Xqj50UlJgLeunVrt1D1zeg12vRmeObXEGPfaJeXni/jflHbW+6SJHllDb11z9/pbeutw+t0OvPc/D8TuPn/inoP5WpabxM8rre/r3H+1g3zpOuNnheVmAh4aZqaxwRX2ox4cb5Om94h3jNc9DbxN1w+h1/bsGH9Zi3nj4953zp6a5w/c/n/zm3rrcoz64r1fV3APRMntaG3Kd6wASjQWGoAtOidFF7QwcEb4FUyAL3m9TqFerNhHjRyQZlWaqj595O/JX5rzZrVuyo6fx+uo7fi+Xt/QL1OwetiE+u7SEDz/zJ1f/LbqN4meVkDYKE31wBo0jsJvKCDgzfCczYAf2pcywZAk97h2JPzfyhQ88/wzBsCt7ag1wfPvFFt5J0Ajnpd0rwD4C4B9VoHr4mtrO87Apq/efnX7k3rbZrXNwAWenMNgDa9sfOCDg5eLs/JAAx+c10yANr05oX5/3ADhWv+/fwx5WzaDej1wXuRB722+XwBekuDtW3j/L6A5m9q+X5N622DZwyAhd7cTNN0nTa9sfOCDg5eLs/aAAxvRD0D0PTxtcU7jPMPFK759/Myzj1a0FuXZ17d+p8e9Jblf5ixBOgdG6ztTpyXCWj+5mrWA5vW2xaPCh4FbJMbNqzfpE1v7Lygg4OXy7MyAAWbkfMbxiocX5u8u1L3Unyo5t/Pn3Pu1YLeurzVnP/lQW9RfoEU/FSSte3N+QsBzd+8PW+fpvW2zKtkAMz52rhxwyaFeqPmBR0cvNwoNQBjNqNvcy5y2jk7GXrHxszMzFySJC9ljdcF3szNz7f2a1qvB555wtzAlQCP3/zXCNQ7EKztbpxXBG7+5hXcp1Dm4VJN6W2LNzc3Z5rFMdQz5C7ZP2cZAyBe76Twgg4OXm6MNQCWm9EVnGdSyaVrIXqteOapd2mansl6f0Z2G4959/hvhv97zWZoeAe1obcmz9xp/lLOmz00f3PD36mk47L/PTh/67n5/4bzJkveT6l73je1obcN3ooVK8yVr7Oou6fUMk89AyBa76TxohITCa/QAFTYzM3bBc23wUfS0FUBQXqdeJs2bTR/674H599w/hPnJzi/xvlpzn/lfDnnAuc85+2oe1XER/Pv51Wc99Zw/ubmZg9IkuTzNfR+lnqXsKXrnZqi+7C+qzw3/4vZeO62ZcvmDdPT04/oPXTJ1JipNVNzpvZMDT6busYwaUtvk7y73GXPVZ1O59gkmfok9d5QWiWH56J3D4A4vZPMi0pMJLxcA+CheRkHb5z8HsL0Ns1bzznyhsWazeFabggPFqp3gDc93Tmmht6dTR+fDx7H/VjfHzw3/2+uW7d2q0S9TfHm5+d3T9P0b81Vtib+bGJ+BSBJL3g5vKjE6OSNGADPzetWdvbns8M/zjh9AXob55lvHvzt7cue/yZ8HZuAh0jUm+X1DUBFrTulzy/HA1nfNZ6b/wXmnRwS9frmrV27JuU6PpLXh3k74i0N3zPhbACkn7+oeFGJ0cszl66bav7DrF/xwjd/V7f+rXsDelvhbd68aSNr/YLn83cDG6mdEvX2k49vsYbenZLnl2OB5+BGz+vj86ZWJOr1zDP3B73M7AEN7i/DvJUB9YKH5q+Gt/QkvIabf5Zn/s73cc6jyfIXBMLPXy5vy5bN5huI+bumz/NnbjZ8gES95n/zPz2iql42D4+UOr/U/eb/R5/rw/zNe9ddt66TqNcTz9SDWePmvqBbW9xfTP4ugF7w0Pz18Tg+0vLizOblnOYtb9vb0tsyz/w062Pk9/yZtxiuFaq3kgEw+qanO4sS5zdN0/VT3bvzPTb/5GPbtu22RqJeDzxzhe8M6q5t1/3A1/7ygRb1gofmr5fHG+9CoOafTXNV4DzqNpBOk3oD8GaouyH5PH+nCNXrbAD6GjMGQNT8crM+3XPz/8Cd7rT7vOJ6zov+t31zZW/gTv5AXy4Oa1gveFV4UYmJiMeb0ocCNv/h/CWneRjPdi3nz4JnTM27yN/5+7ZQvU4GIKuzZwDEzS8f26Uem/85++6718oI6rkf2znNFbzlb/tUML8t7i/vbVAveHV4UYmJiNe9aW3qcxS++Wd5t/KGeZ5pDL1NU+z5s+SZB+b8M/k5f+ZbVuH9EwH1WhuAYa29ewCaPj4n3vbt21bzsd3mqfn/y8EHHzinYT8o4Rkza+bZXLEr/N1+oOZvnpmwyrPe0gDPkheVmMh4K1euMA3lVBp6KY5NtrDYl64KcN7Rl95A8zHF+Sbyc/62CNRrZQAK9O5s4ficeGvWrN7mqfm/aceOQ2YF1F8d3nbqrsFfFumk8fPbZPM3e9aLyeKmYmH7wWTxohITL8/cvf406r5cRELzz/67+cbx75TzulNB568sjAl4FdU/f1sF6i01AGP0OhuApvWuXj2/3UPzf7Xy5n9/6r6bweopfS3vB//N+ddk+Zt/AetjsnlRiZkM3g7Ot3NeT+EXezZvo+436eUbBj3pLQzfPOre51Dn/A0YACF6xxqAEr1OBqANvfPzq7aP01OW5gZCqfVnwTNr6/+56G1pP7iO822c9/Gs1ynAq8CLSsxk8UauCgRs/tl8e0N6W+Fxgzi7xvnbOswToLfQAFjMr7UBaEsvz8/ti/SUJX/2nQLmow7vX130trAfmL3H+tt+Bb3gtcQLOjh49XhTU7TDbG68IK8P3Pz7udik3iZ5aZq8osb52ypQb64BsJxfKwPQst5KBsDo47k9S8B8VOUd66q3oeZ/vdlrZmam76/s/IHnI6SLmWTeLrts3NTppCfxIr2IwjV/kxe1obcJXt8AOOpdNgAC9Y4YAIf5LTUAAfQ6G4C+xowBEFt/Y3jLb7Usyyaaf5JMXWpeFLR+/brbKT1/4NUN6WLAG+CZV+a+hfNaCvPNYXeN54+/3by8ol5ziXmrQL0DBsBxfscagEDz62QAsjp7BiD0fFTh3cVGK/lv/jdyTZ9rXhaUuWlS4/kDr4AXdHDwWuGZ1+E+nSy+QXjePB6q8fzxP51ZVfP8/Pw2gXqXDUCF+S00AAHr2doADGs1L74SMB9VeA/L0zecHtev+dv+08xbNAXWM3geeUEHB6913qGc7+S8gZpt/v/b6aSPEaC3Cq+SATDny/xGXaDeR1D1+c01AIHr2coAFOg9o4Xja4L3aKqm1yXNr4rewXmoAL3gtcQLOjh4wXjmxTVPou7f6hv5m2Gn0zlekF4XnrMB6J+zjAEQo5fjETXmd8QACKjnUgMwRq+zARCg18RjqLnmfynnyZy7CNILXku8oIODF543MzNzSJIkb+VN4zqfdwtnDIAovRY8JwOQ3XR7BkCUXp6HxRrNYecwT0A9jzUAJc3QyQAI0Wui0ABUbP43cr7PHBJ1H4IlTS94LfGiEgNedZ75BUGapidR76pAlcxuQj0DIFbvGJ61ARjeeHv3ADR9fE686enOMTWu7Owc5gmo50IDYNEMrQ2AIL0mcg1AheY/8G1fsF7wWuJFJQY8b7z+LwjME74qNcNOJ32sIr3ZsDIAeZuv+RVAC8fnxMsaABtdQ7mz6eOrwMs1AJbN0MoACNNrYsQAODT/3G/7wvWCF4oXlRjw6vIWqGIz5P9+XAvH1wSv1ACM2XydDUDTevsGoExTQe4UMB/DMWIAHJphqQEQqNfEgAFw/Ob/0BaOD7wYeFGJAc8H70iq3gydDYAAvSbGGoCSzdfJALSh19wDME5PSe4UMB/DMWAAHJvhWAMgpP7yYtkAVLjs/+AWjg887byoxIDnizfWAJRsRk4GQIheE4UGwGLztTYAbekly9cB5yWbh0cKmI/hWDYAFZphoQEQVH95sWQAKt7wl2sAhOsFD80fPAG8QgNgsRlZGwBBek3kGgDLzdfKALSst5IBMPqmpzuLAuZjOG5P9vNhZQCE1V9ePKai3lwDIF0veGj+4Mng5RoAy83IygAI02tixAA4bL6lBiCAXmcD0NeYMQBi6tm8DbBGMxwxAALrb4TX6aSPq6h3xABo0Atei7yoxIDnmzdiABw231IDIFCviQED4NhsxhqAQHqdDEBWZ88AhJ6PAd78/KrtNZrhGcM8gfU3wut0OidU1DtgALToBa9FXlRiwPPNGzAAjs1wrAEQqtfEsgGo8E2z0AAE1GttAIa19u4BaPr4nHirV89vr9EMzxjmCay/EV7WADjqXTYAmvSC1yIvKjHg+eYtG4AKzbDQAAjWa2LJAFS8zJxrAALrtTIABXpLXwfs4ficeFkDYKNrKM9o+via4PUNQAW9SwZAm17wWuRFJQY837wlA1CxGeYaAOF6TZxZ42/MIwZAgN5SAzBGr7MBaFpv3wCUaSrIMwTMhzPP3ANQUW/fAKjSC16LvKjEgOe7GR5ZoxmOGADpes3nkiR5eY2/MW8d5gnQO9YAlMyvkwFoQ6+5B2CcnpI8Q8B8OPOo5GVA43J6uvMQbXrBa5EXlRjwvPJ48ziqRjM8bpgnXa/5fJomr6jxN+atwzwBegsNgIW5szYAbek1vwIo0lOW/NkzBcxHFV4lA9C9kXP6IQr1gtcyL+jg4MnkcRxVoxkeN8yTrtdwsgbAUe+yARCmN9cAWF7ZsTIALeutZACMPp7bswTMRxWeswH40y85lg2AJr3gtcgLOjh4cnlZA0Dum+5x2vQeljEAFfQuGQCBekcMgMOfdUoNQAC9zgagrzFjAMTWXwHPyQAM/pRzyQBo0wteS7ygg4Mnm9c3AFStGR6nTa9Jcw9ARb1LbwMUqHfAADje0zHWAASaXycDkNXZMwCh56MKz9oADM9t7x6Apo8PPKW8oIODJ5tn7gGgis2QugZAlV7zv8nydcB5OT8/v02g3mUDUOGGzkIDELCerQ3AsNbePQBNH18TPCsDUDC/D27h+MBTygs6OHiyeWTxNsCi7HTSx2rT2+NVMgBms12zZvU2gXofQcXNoZIBCFzPVgagQG/p64A9HF8TvFIDMGZ+nQ2AAL3gtcQLOnikPHNS78b5F5wv4XxXkkx9gr99fJn/78W8MH9kkv975ewzstkQ71dUsRlyXtnC8TXBu6qiXpM/Eaj3iorN3+QVAuZjOH/qMB/Deq8SMB9VeFdW1GvycmV6/5vzvzj/k/Nd1N1DzV66H+eMwP1eNS/o4JHwEs6DOV/E+QXOm8l+cVZtruCBBx54k8a7mT//hTRNT5mdnb33wQcfOBdB/wjKi0pMy7wDON/I+WvSuZjAAw888DTzzJWRN3DuT44hoH+I4EUlpgXeLOeJnF+h8MUPHnjggQdeN79M3b3Z7NFjI6J+5J8XlRh/PHOZ/xjq/o1KYvGDBx544IFH9HPOJ3F2KCci6UfN8KIS4493LOf3SUfxgwceeOCBR/Q96t48uByR9KNmeFGJ8cMzj3X9MOksfvDAAw888IjO47xDBP2oOV5UYvzwzOX+35H+4gcPPPDAm3Te1WmanrRjxyGzSvtRc7yoxNTnrSbHb/0kv/jBAw888CaelyTJhzdv3rRRUT9qnheVmHq8O3FeTEKKFTzwwAMPPO+8Szn3pgqhvL8VfigeMdV5h5HjJX/SWfzggQceeJPOM3v9n5FDKO9vYz8Yj5hqvIdw3khyixU88MADDzy/vD+SxeuuTSjvb6UfjkeMO++hhOYPHnjggTeJPGMCzMuyCkN5f7MCxCPGjXc0502kp1jBAw888MDzyzM9INcEKO9v9pBgg4fjHUrtfvO/jrpPEbyA8zOcnzSZJFPnJ0mSyanz+/9WJcEDDzzwFPM+y//9QurulddTe/vzDZw7KBPK+1uzIV1MCW93GvMCn6J0LC7zFKrXUNdZ7kndRwmH0gseeOCBp41n9kyzd5orta+jkqexeriSYF59fceAeoPxgg7eMm8N57epmeb/W85XcN5FkF7wwAMPvFh4e3G+koZ+seXxzwj/3el0VgvS2zgv6OABeO8n/83/V5wncc4J1AseeOCBFxtvBedTOa/wfQ9BkiTvFai3MV7QwVvmHU9+m7+5h+BUzlVC9YIHHnjgRcvbvHmX9Wmans778o0+byDsdDrHS9TbBC/o4C3ybs/5e/LX/M0TA+8uWC944IEH3kTw5ubm7s778zfJQ/Pv5VWrVq3cQ6pen7ygg7fEm6LuXae+mv+bOctPXDi94IEHHngTxZvl4H/+R6rf/Pv7/XmS9friBR28JZ55J7SP5n8L58kK9IIHHnjgTSrvGdTdq3182Rv7kCAhemvxohKTwzOu0Pym1Efz/wsFesEDDzzwJp33aLIwARY3EJqfHo7/lixDb2VeVGJyeM+l+s3/Ns4nKtELHnjggQce0Qmct1L15t/PZyrR64cXkZgNnFdR/ctAz1KiFzzwwAMPvD/F31C95m/SPHNgnRK99XhRiSF6AdVv/u9UpBc88MADD7zBeBtVb/79fK4ivdV4UYkhMn/b+AXVa/7mZyWlD/cRohc88MADD7zRMA8NMj/brvPEwJ9xdpTodedFJaYbj6V6zf9mznso0gseeOCBB15O8N5unhNwU80nBh6rRa8TLyoxf4qvU727P1+iTC944IEHHngFvDRNzqr5uOCvatJrzYtKTDf2pnrN3/zpYIUiveCBBx544I3hbdu22xre639W53HB/Nl9tOi15kUlphunUfXmb/KEho8PPPDAAw+8lnlpmj6JKjZ/k2manKpJrxUvKjHd+C5Vb/7mVcGpMr3ggQceeOCV8NauXWP29kuo2rf//02SqW9r0mvFi0oM0f5UvfmbLH3gjzC94IEHHnjg2fOeQhWafz/Ni4eU6S0FxCOG6PlUvfmbBz6sVKYXPPDAAw88e555fbvVA+Iop3+kafp8ZXrLIcEG98/7GFVr/iZf28LxgQceeOCBF5b3eqrQ/Hv9499aOL7WeUEH98RLqPstvkrzN3lvZXrBAw888MBz592XqjX//pXiRJlefyFYzAFUvfmbn/5NKdMLHnjggQeeO8808MvJvfn3867K9PoJ4WKWbu6o+LjHf2jh+MADDzzwwJPBeytVv2H8SS0cXyu8oIP75HG8tsaznh/d9PGBBx544IEnhvc4qn7D+KtaOL5WeEEH98lLkuTfazzrebs2veCBBx544FXm7UnVbxj/SAvH1wov6OA+eUkydfCCMFoAACAASURBVGnF5n+lRr3ggZcJ89Om/TgXOJ9G3XdZvJHz3Zyf4vXwTc4f9fKXnL/n/57NX3L+qJffMJ/hfE+PYVhP53wY5906nc68AL3ggeeD9xuq9mfj77R0fI3zgg7ui3fwwQfO8aTdWPFFD1/Uphe8ieWt4bwfdZv8P3N+hboGtsrdzJWyx/h1kiRf5Xx7mqbP4v9+f861DegFD7zGeBxfrrg+bqScXwJI15vHCzq4L96aNavvUGNze6c2veBNBm9ubs7cbfwkzrM5f8h5G7k3a9/Nv4hnjs1cQXgX55Op+1KuoOcPPPDG8djAnlNjfWzWpjePF3RwX7yVK1fsU2NzO02bXvDi5K1bt3bXTqfzf3ljeh/X86+ouWbdFs9oMH9KOJFzU9PnDzzwXHhpmp5RY33cSZteK55GMbOzMwdT9c3tGdr0ghcPjzee7bwRPZub/vn8/74pYLNumncr5wWcp83Nze0ndT7Amxwer7vn1qjn/bXpLeVpFTM1Vf5kp6LkIniyNr3gqeeZv5ebnyF9UmizbpyXJFPf5bX3t2vXrtkqYD7Am0Bep5OeVKOed2jTO5anXMyRVHEz6nQ6xyvUC54+nnnS5OGc53DeQIqadcM8cy7MrxUeTAVP48wLgfMLnjIeG4DjqXo9H6FNbyFP4+QN8czPnyptRmwAjlWoFzw9vBnqftu/mPQ366Z5P+B8BueKBucDPPCWePxPi1Sxnrlv7NSmN5endfKGeE4GILsJ9QyANr3gyeet4zyZur+xl9BcNfHMzYN/y7ne43zkBngTzatkAEz9Tk9PP0Kh3twPaJ28bFgbgOGNiA3AoxTqBU8uz3zjN99izQN2JDZXTbxrOM/iXF1jPgoDvInnORuAfg1nDIAmvbkf0jp52bAyAAWb0WILxwde/DzzYJBjOC8jHc1VE+/XnCdv23aH+YjqBbzwPCcDkK3jngHQpjf3g1onLxulBmDMZuRsAAToBU8W7884LyGdzVUT73u88T40gnoBTwbP2gDkXDneqVBv7oe1Tl42xhqAks3IyQAI0QueDJ75G/VbqOQJfUqaqxpekiTncg48ic02Iqs/8OrxrAxAQT0vtHB8zfMUT142Cg2AxWZkbQAE6QUvPM9c7jeXpqNqrop4V1H3XouRZ7IXRWT1B159XqkBGFN/zgZAgN58SLDB/fFyDYDlZmRlAITpBS8cbyPnv5GsZjjJvPNo6LnsNefXKsCLgjfWAJTUn5MBEKLXTwgUM2IAHDajUgMgUC94YXgP4Pw5yW2Gk8ozb0Q80sP8WgV40fAKDYBF/VkbAEF664dQMQMGwHHzGGsAhOoFr11eynka5y0kvxlOKs/ch/F6zoE3nEVSf+A1w8s1AJb1Z2UAhOmtF4LFLBuACptHoQEQrBe89nhrqHuZWVMznGTep6j3AKFI6g+85ngjBsCh/koNgEC9I7ygg3vkLRmAiptHrgEQrhe8dni35/wG6W2Gk8r7AX/2LhHUH3jN8gYMgGP9jTUAQvWO8IIO7ovHsVBj8xgxANL1gtcK7wCy/Hs/yW6Gk8r77czMzIMU1x94zfOWDUCF+is0AIL1jvCCDu6LZx7KUGPzWBzmSdcLXuO8IzivpXia4aTybpye7hyjsP7Aa4e3ZAAq1l+uARCud4QXdHBfPPNYxhqbx+IwT7pe8BrlmbvJl17Xa5OKmuGk8syNm48uq428iKSewSuOxRr1N2IApOvN4wUd3BcvawDIfdNY1KYXvMZ4aP5x8owJeMz4ChmMSOoZvDE88yK4GvW3MMyTrjePF3RwX7y+AaBqG8eiNr3gNcI7ivNGkte8wPPDu5nzUePqpB+R1DN4JTzzKvga9bcwzJOu14qnUYy5B4Cqbx6L2vSC5513T87rSG7zAs8P7ybOw4urJZp6Bs+ClzUA5F53C9r0lvK0iiHL1wHnpbkMpE0veF55u1P3SXLSmxd4fnhXc+5fo16sAzzZvL4BoGq1t6BN71iecjGVDICZfFMECvWC54e3gfNS0tO8wPPD+wXnbhXqxTrAk88zX/6oev0taNNbyNM4eUM8ZwPQ3zAyBkCTXvDq82Y4P0v6mhd4fngXcK5yqBfrAE8HjyxfB5yX5s/O2vTm8rRO3hDPyQBkN42eAdCmF7z6vFeT3uYFnh/ev0RUz+C58yoZAFNv5sZzhXpzP6B18rJhbQCGN47ePQBNHx94snh/Tt2Xx2huXuB54HU66eMjqGfwqvGcDUC/5jIGQJPe3A9pnbxsWBmAgs2j9HXAHo4PPDm8LZxXUATNCzwvvGtWrJi7m+J6Bq86z8kAZOuuZwC06c39oNbJy0apARizeTgbAAF6wavGSzjPp3iaF3geeEkydfFuu+26WmE9g1ePZ20Acq4c71SoN/fDWicvG2MNQMnm4WQAhOgFrxrvWRRZ8wLPG++MvIIpi8jWx6TxrAxAQb2Uvg7Yw/E1z1M8edkoNAAWm4e1ARCkFzx33lbO/yEZzQY8eTzzpMAD8gqnKCJbH5PIKzUAY+rF2QAI0JsPCTa4P16uAbDcPKwMgDC94LnzPkhymg14Mnlf4JwqKqBsCKhn8OrzxhqAknpxMgBC9PoJgWJGDIDD5lFqAATqBc+NZ+76l9ZswJPJe2JREfVDQD2D54dXaAAs6sXaAAjSWz+EihkwAI6bx1gDIFQvePa8FZyXkcxmA5483u84dykqJgH1DJ4/Xq4BsKwXKwMgTG+9ECxm2QBU2DwKDYBgveDZ855HcpsNeDJ5r84rJCH1DJ4/3ogBcKiXUgMgUO8IL+jgHnlLBqDiYs81AML1gmfHW8v5W5LdbMCTx7uB8w7ZQhJSz+D55Q0YAMd6GWsAhOod4QUd3BePY6HGYh8xANL1gmfNexHJbzbgyeS9oV9EguoZPL+8ZQNQoV4KDYBgvSO8oIP74pmHMtRY7IvDPOl6wbPizXJeTjqaDXjyeNdxbhRUz+D55y0ZgIr1kmsAhOsd4QUd3BfPPJaxxmJfHOZJ1wueFe8E0tNswJPJe56gegbP/5XjxRr1MmIApOvN4wUd3BcvawDIfZEvatMLnlV8jnQ1G/Dk8b4nqJ7B83/l+FE16mVhmCddbx4v6OC+eH0DQNUW+qI2veCVxu409LY/Bc0GPIG82dmZQwXUM3gN8Myr4GvUy8IwT7peK55GMeYeAKq+2Be16QWvNJ5PCpsNePJ4aZq8RkA9g9cAL2sAyL1OFrTpjbL5H9a9jGH1OuC8NJeBtOkFrzTMI13VNRvwRPJ+IKCewWuA1zcAVK1WFrTpjbL593iVDICZfFMECvWCVxzrOG8hGc3mG5ynct6Xc3PmGDfxZ/ednp5+cJqmJydJ8hH+31coaIZ1eVcaraz5+TMz00fMzc3uz/97U/a8cB7KeQrnhYL07kmOIXh9gPcnA/Aoql4vC9r0xtr8TTgbgP4CzxgATXrBK46HUthmeCvnuzjv7KqXmXvzP7+Y8zsNHl/bvEs4TzXNvsL87sH5zt45Dan38WUHmg3h6wO8Ho8sXwecl+bPztr05vK0Tt4Qz8kAZBd5zwBo0wtecbwsYDM03/gP8qR3f85XcV7t8fjaav5/oO7jdO/uaX7NufhqQL1vtT1Q6esDvAFeJQNg6sPceK5Qb+4HtE5eNqwNwPBC790D0PTxgdcSL0mmPhGoGZ7LuaoBvas5n0E6Hmr0G87TODfU0FsU5sFObwuk9wKbA9SwPsAb4DkbgH6NZAyAJr25H9I6edmwMgAFi730dcAejg+8lng8pz8P0AzfSCXvkfegdyXncyhzRUBQ8zff+E+mjAFqan7TNHlFAL3mqYCJzfFJXx/gDfCcDEC2TnoGQJve3A9qnbxslBqAMYvd2QAI0AteDm/r1i3reV5va7k5/Cdnp0W9WznfL6j5f6B3TE3pHeDt2HHIbJIkHwyg9442xyd5fYA3wrM2ADlXjncq1Jv7Ya2Tl42xBqBksTsZACF6wcvhrVq1as+Wm+FPqPurg9b18gZ0Ih/XdQGbv/lW/Pi29GZ5bPTMWx6db5SsqfeetscndX2ANxJWBqCgXkpfB+zh+JrnKZ68bBQaAIvFbm0ABOkFL4c3Ozt775ab4WND6p2bm72X+ZNHi3r7+QvKudmx5Xp5SIt6Tf55YL3g+eeVGoAx9eJsAATozYcEG9wfL9cAWC52KwMgTC94Obzp6c5R1F4zvIjG/F24rfPHx3hH/ucft6C3n8ZwjPwuPlC9fLIFvf08XoBe8PzyxhqAknpxMgBC9PoJgWJGDIDDYi81AAL1gpfD4396NLXT/E0+IbTeDG9fzmsa1mvyWs79BOjth7Xh83DPxLME6AXPL6/QAFjUi7UBEKS3fggVM2AAHBf7WAMgVC94+bwnUzvN3zxpMPsEu1B6s3FCg3oLTU/gepkjC+PjofmbPEWAXvD88nINgGW9WBkAYXrrhWAxywagwmIvNACC9YKXzzMNqunmb/LzQvRmw/wM8SsN6TX5dRr6qaOQenl/Q3qH82QhesHzxxsxAA71UmoABOod4QUd3CNvyQBUXOy5BkC4XvDyeU5/AqjRHF4lRO9wPLYhvSZPEKjXxPMa0juczxCiFzx/vAED4FgvYw2AUL0jvKCD++JxLNRY7CMGQLpe8Ap5R1Pzzd/kXwnROxzrG9JrcvlPHoL0mqhzGdc60zR9qhC94PnjLddOhXopNACC9Y7wgg7ui2ceylBjsS8O86TrBa+QZ/XTMA/N4XFC9ObF7xvQe41gvYc3oHeEx3vMXwrRC54/3pIBqFgvuQZAuN4RXtDBffHMYxlrLPbFYZ50veAV8nZQ883f5OOF6M2LaxvQeyPnlFC9Rzagd4Q3Pd05Wohe8DzxOBZr1MuIAZCuN48XdHBfvKwBIPdFvqhNL3iFcXtqvvmbfJYQvcOxrSG95rN7CNRrYvm+j6aav8m5udmDhegFzxPPvAiuRr0sDPOk683jBR3cF69vAKjaQl/Uphe8wjAP5vkjNdv8Tb5JiN7heGZDes3fwE8WqNfEqU3oHWZt2LB+kxC94HnimVfB16iXhWGedL1WPI1izD0AVH2xL2rTC97Y+CE12/zN578tSG8/VlD33QRNNcNfmJctCdLbj8803fw5r5aiFzx/vKwBIPc6WdCmt5SnVQxZvg44L81lIG16wRsb51OzzX8pV65csY8Qvf04s0m9JtM0eaUgvcTHs5GP6+aGm7/57xdJ0AueX17fAFC1WlnQpncsT7mYSgZgqnt377EK9YJXHK+nhpt/txmmLxCi18TDOW9t4ZvwbdT9qWVovUs8noMnttD8TZ4jQS943q8cP4qq18uCNr2FPI2TN8RzNgD9BZ4xAJr0glcc5id6jf9NmPNKrp3VAvQewXlDC3r7/2busQj+IpS9977ziiSZuqQFvSafHVoveI1cObZ6HXBemj87a9Oby9M6eUM8JwOQXeQ9A6BNL3gFwXO6b4vN8EWB9T6G2m3+/byZ868D6F3m8bf/p7eo9/6uxyd1fYA3wKtkAEx9mBvPFerN/YDWycuGtQEYXui9ewCaPj7wWuLtt9++czyv17TUHP7AuU8Avas432JxfE00w2y+lXO+Bb0DvFWrVu3Jx/WblvTeyml1pUfD+gBvgOdsAPo1kjEAmvTmfkjr5GXDygAULPbS1wF7OD7wWuQlSfL5FpvhDzg3tKj38N6YoZt/P82vLo5oUO8Ab8uWzRuSZOq/W9T7HZfj07A+wFsOJwOQrZOeAdCmN/eDWicvG6UGYMxidzYAAvSCN4aXpunpLTfDz3CubVjv/pwfrHh8TTX/bH6Y8+4e9Y6cP/MzRDZ3/9Gy3jfZHp+W9QHeclgbgJwrxzsV6s39sNbJy8ZYA1Cy2J0MgBC94I3hzcxMG1jbzfD7nHs3oPdQzo9y3lbz+Jps/tn8YhM3SM3Pz+/O3/wvDKB3p83xaVof4C2HlQEoqBenG2ErHl/zPMWTl41CA2Cx2K0NgCC94I3hrVy5wtzhezW13wzNi3ieyjldU+8unE/h/C/Px9d0819m8Df1r6Rp+rQ1a1bvWmd+zd3+nU56Uot/88+mudlx3bjj07g+wFuOUgMwpl6cDYAAvfmQYIP74+UaAMvFbmUAhOkFr5z3EQrXDM3VgOM3bly/i4PeO3E+gfM/OG9q+Pja5Jkmeh7niZx7lkzrcpifWHLjfxx/6780oN4vFx1fBOsDvBIDUFIvwX8K65MXdHAPvBED4LDYSw2AQL3glfPMN/HQzfCP/E34E/xN+Pnc0B4xNbX0tsJDOI+ibrM3PyP8EOcVgY4vBO+KnuYXU9cUHNU7J+bcPIzzOZwf58/fKEDvaZQTkawP8MYYAIt6sTYAgvTWD6FiBgyA42IfawCE6gWvnLcrdX/CJbkZgiebd7fhoopofYBXYAAs68XKAAjTWy8Ei1k2ABUWe6EBEKwXPDvel0hPswFPFu/7w8UkoJ7B88sbMQAO9VJqAATqHeEFHdwjb8kAVFzsuQZAuF7w7HjPJR3NBjx5vDOzhSSknsHzyxswAI71MtYACNU7wgs6uC8ex0KNxT5iAKTrBc+aZ26s09BswJPHu2e/iATVM3h+ecsGoEK9FBoAwXpHeEEH98UzvzuusdgXh3nS9YLnxPs6yW824MnimacbTpniEVjP4PnjLRmAivWSawCE6x3hBR3cF888lrHGYl8c5knXC54T75kku9mAJ493mikcofUMnicex2KNehkxANL15vGCDu6LlzUA5L7YF7XpBc8pNlP3t+hSmw148nh3EVzP4HnimRfB1aiXhWGedL15vKCD++L1DQBVW+yL2vSC5xznCW424MnifVl6PYPnh2deBV+jXhaGedL1WvE0ijH3AFD1zWNRm17w3HidTnq80GYDnjzeX0mvZ/D88LIGgNzrZEGb3iib/2HdyxhWrwPOS3MZSJte8Nx427bttoYX+e8FNhvwZPFuWL9+3Wbp9QyeH17fAFC1WlnQpjfK5t/jVTIAZvJNESjUC54jL0mSNwtrNuAJ43GNnKOlnsGrzzNf/qh6vSxo01vI0zh5QzxnA9DfMDIGQJNe8Bx5s7OzB5GgZgOePN7MzPThWuoZvPo8snwdcF428cprNP/qPCcDkN00egZAm17wqvG+QUKaDXjieD8++OAD55TVM3j1eJUMgKkXc+O5Qr25H9A6edmwNgDDG0fvHoCmjw88Gby/IhnNBjxhvDRNX6ywnsGrx3M2AP16yRgATXpzP6R18rJhZQAKNo/S1wF7OD7wZPDWcl5HkTUv8GrzbpmfX7WHwnoGrx7PyQBk665nALTpzf2g1snLRqkBGLN5OBsAAXrBq847m+JqXuDV5CVJ8jHF9QxedZ61Aci5crxTod7cD2udvGyMNQAlm4eTARCiF7zqvAdSRM0LvPo83swfqbiewavOszIABfVX+jpgD8fXPE/x5GWj0ABYbB7WBkCQXvCq88xLXn5MkTQv8Grzrly5coXda1GHQkg9g1edV2oAxtSfswEQoDcfEmxwf7xcA2C5eVgZAGF6wavHewnF0bzAq897bXm5jIawegavGm+sASipPycDIESvnxAoZsQAOGwepQZAoF7w6vH25LyN9Dcv8Orz7l5eLoMhsJ7Bq8YrNAAW9WdtAATprR9CxQwYAMfNY6wBEKoXvPq8L5L+5gVePd7FNoWSDcH1DJ47L9cAWNaflQEQprdeCBazbAAqbB6FBkCwXvDq855MupsXePV5z7YplH4Ir2fw3HkjBsCh/koNgEC9I7ygg3vkLRmAiptHrgEQrhe8mrw0TddyfVyvuHmBV493M+ftbGrFhPR6Bq8Sb8AAONbfWAMgVO8IL+jgvngcCzU2jxEDIF0veH54SZKcq7R5gVef9zGbWjGhpZ7Bc+YtG4AK9VdoAATrHeEFHdwXzzyUocbmsTjMk64XPD+86enpnUqbF3j1ecdYlIuqegbPOZYMQMX6yzUAwvWO8IIO7otnHstYY/NYHOZJ1wueH96+++61kuvld6SvefngfZnzS4KPr0neNZxzrvUivZ7Bc47FGvU3YgCk683jBR3cFy9rAMh901jUphc8fzz+p3eSrublg/d5zpQz4fyUwONrmndu1XqRXs/g2fPMi+Bq1N/CME+63oL9L9zgvnh9A0DVNo5FbXrB88qr/EpQpc3QPP/gPpnTcwDnrYKOrw3eY4qrRX09g2fJM6+Cr1F/C8M86XqteBrFmHsAqPrmsahNL3heefOcN5Ce5lWX9+6c0/R2QcfXNM/c/b8x5xwsRQT1DJ4lL2sAyL3uFrTpLeVpFUOWrwPOS3MZSJte8LzzPk06mldd3h8598g5VbtxXi/g+NrgfSlH/1JEVM/gWfD6BoCq1d6CNr1jecrFVDIAZvJNESjUC55f3ktJR/Oqy3v1mFN2uoDja4P38jzxkdUzeBY88+WPqtffgja9hTyNkzfEczYA/Q0jYwA06QXPL+8I0tG86vCuojGXvqn7p5BfRaS3cOMeFi6g/sALwKOK9/+YNH921qY3l6d18oZ4TgYgu2n0DIA2veD55a2hMTfCCWpedXjPsTh9J0WktygHTJCQ+gMvDK/yDcDmxnOFenM/oHXysmFtAIY3jt49AE0fH3jyeb8g+c2rKu8yztmyE7B27ZqUP//tCPQW5ZVZvcLqD7z2ec4GoF9zGQOgSW/uh7ROXjasDEDB5lH6OmAPxweefJ55MI7k5lWHN/Znb9nzNz3dOToCvUX59WG9guoPvPZ5TgYgW3c9A6BNb+4HtU5eNkoNwJjNw9kACNALnn/ewANxBDavqrxvUveBP9bnL0mSTynWOy4/m6dXSP2B1z7P2gDkXDneqVBv7oe1Tl42xhqAks3DyQAI0Quef955JLt5VeU90PX8cdybug8M0qh3XJ4vuP7Aa59nZQAK6q/0dcAejq95nuLJy0ahAbDYPKwNgCC94PnnfY5kN68qvI/WOH9nK9Rbll8SXH/gtc8rNQBj6s/ZAAjQmw8JNrg/Xq4BsNw8rAyAML3geeZxXCi8ebnybuG8a43zZx4OdJ0ivTa8i6XWH3hBeGMNQEn9ORkAIXr9hEAxIwbAYfMoNQAC9YLnmcf18T3hzcuV9xYP5+8sRXpteJdJrT/wgvAKDYBF/VkbAEF664dQMQMGwHHzGGsAhOoFzzOPa+SXwpuXC8+87narh/O3mro/nZOu15b3W6n1B14QXq4BsKw/KwMgTG+9ECxm2QBU2DwKDYBgveB55nGdXCe8ebnwTvN4/p6mQK8t7+aDDjpgVmL9gReEN2IAHOqv1AAI1DvCCzq4R96SAai4eeQaAOF6wfPI27p1y3oFzcuWZ76xr/Z4/swjU78nWK8TL0mSTWWC80JTPYNnHQMGwLH+xhoAoXpHeEEH98XjWKixeYwYAOl6wfPLW7Vq1Z4ampflZ/9vA+fvaMF6XXmFN0YWhbZ6Bs86lg1AhforNACC9Y7wgg7ui2ceylBj81gc5knXC55fXu937xqaV1lewtlp6Px9QaDeKrwHuYjWWM/gWceSAahYf7kGQLjeEV7QwX3xzGMZa2wei8M86XrB88vjfzqSdDSvsjyqwfN3L87bhOmtwjvWVrDWegbPOhZr1F8Ub5UMOrgvXtYAkPumsahNL3jeeeZZ+Rqa17j8TNPnL0mS9wrSW5X3dFu9iusZPAueeRFcjfpbGOZJ15vHCzq4L17fAFC1jWNRm17wvPOeRTqaV1Gax/Ye3PT5W7Vq5V34uG4UoLcO7yW2ehXXM3gWPPMq+Br1tzDMk67XiqdRjLkHgKpvHova9ILnnXc66WheRfmets5fkiRvEKC3Du9NLnqV1jN4FrysASD3ulvQpreUp1UMWb4OOC/NZSBtesHzzjNPzdPQvIry6W2dvzRN/0qA3jq897roVVrP4Fnw+gaAqtXegja9Y3nKxVQyAGbyTREo1AueX94HSEfzKsqrOd/G387fOpzUNTeVMof3Tv7v/yNAbx3ep/IKILJ6Bs+CZ778UfX6W9Cmt5CncfKGeM4GoL9hZAyAJr3g+eV9mnQ0L/Dq8y4cnnwB9QdeAB5Zvg44L82fnbXpzeVpnbwhnpMByG4aPQOgTS94fnnLv3HPS0HNC7z6vIuyEy+k/sALw6tkAEy9mRvPFerN/YDWycuGtQEY3jh69wA0fXzgyeZ9iXQ0L/Dq877Tn3RB9QdeGJ6zAejXXMYAaNKb+yGtk5cNKwNQsHmUvg7Yw/GBJ5v3VdLRvMCrz7vUTLiw+gMvDM/JAGTrrmcAtOnN/aDWyctGqQEYs3k4GwABesHzy7uAdDQv8OrzfiCw/sALw7M2ADlXjncq1Jv7Ya2Tl42xBqBk83AyAEL0gueX93XS0bzAq8/7gcD6Ay8Mz8oAFNRf6euAPRxf8zzFk5eNQgNgsXlYGwBBesHzy/sE6Whe4NXnfU1g/YEXhldqAMbUn7MBEKA3HxJscH+8XANguXlYGQBhesHzyzuHdDQv8GrykiQ5T2D9gReGN9YAlNSfkwEQotdPCBQzYgAcNo9SAyBQL3h+i/+lGpoXePV5bADeJK3+wAvGKzQAFvVnbQAE6a0fQsUMGADHzWOsARCqFzyPvE6n82gNzQu8+rw0Tf9aWv2BF4yXawAs68/KAAjTWy8Ei1k2ABU2j0IDIFgveB55q1fPb+c6uc1js/k95y3Sm6ES3m988mZnZw+SVn/gBeONGACHei41AAL1jvCCDu6Rt2QAKm5GuQZAuF7wPPOSZOoCH82LOd9auXLlXkmSfEJBc5XO+xafxy38b5/1xLtMav2BF4Q3YAAc63msARCqd4QXdHBfPI6FGpvRiAGQrhc8/7w0TZ9E9ZrXrWmavGbbtt3WGF6n03lETZ62Zt0E7/G9KetwvpDzppq8ky3KYyQ01jN4VrFsACrUc6EBEKx3hBd0cF8881CGGpvR4jBPul7w/PNWrlxh3PD3qFrzm4CWpAAAG+BJREFUumhmZuYBOcf3joo8jc3aN+/DOdN3AOcXK/Iu55wvroz80FrP4FnFkgGoWM+5BkC43hFe0MF98cxjGWtsRovDPOl6wWuMtx/nH8i+di5P0/Tp++9/1xUFPGMqznHgaW3Wvnkf4ZwrmMYpzsdx/tiBdyPnjgJeYURQz+CNj8Ua9TxiAKTrzeMFHdwXL2sAyH0TWtSmF7xGeQdxXkLja+Zizidu23aHeQueaVhP5by2hKm1Wfvk3cD//TmcSemEdv8scBzn10qO72ec97fgDURE9QxeAc+8CK5GPS8M86TrzeMFHdwXr28AqNpGtKhNL3iN81ZwnsD5Huo2GPOyoHM5n8W5Z8XjuyPnRymeZu2VlyRTn+T/u+e4E1gU/Nk7mJ/3JUnyPs6vmBs6+f++n//pKZxrXHkC6g+8FnjmVfA16nlhmCddrxVPoxhzDwBV34wWtekFTzXvWM5rSHGz9sy7jpv3X0Y0v+Ap4WUNALnX8YI2vaU8rWLI8nXAeWkuA2nTC5563r04ryd9zdo378aZmekHCJgP8CaQ1zcAVK2WF7TpHctTLqaSATCTb4pAoV7wlPM4nqusWXvnpWlyipT5AG/yeObLH1Wv5wVtegt5GidviOdsAPqbUMYAaNILnnLe5s27rOf6u1ZLs26A98c0TddXPX/S5xc8+TyyfB1wXpo/O2vTm8vTOnlDPCcDkN2IegZAm17wIuAlSfJBJc26Cd5/1j1/0ucXPPG8SgbA1K+58Vyh3twPaJ28bFgbgOGNqHcPQNPHBx54Izz+BvxMJc26Cd4L654/6fMLnnieswHo13DGAGjSm/shrZOXDSsDULAZlb4O2MPxgQfeCI/jvqSjWTfBO6Lu+ZM+v+CJ5zkZgGwd9wyANr25H9Q6edkoNQBjNiNnAyBAL3gR8NgAmKfdWT/fnuzqWUPzN7mp7vmTPr/giedZG4CcK8c7FerN/bDWycvGWANQshk5GQAhesGLh/ctkt+sffN+6vH8OQV44GXCygAU1HPp64A9HF/zPMWTl41CA2CxGVkbAEF6wYuH9wGS3ayb4H3a4/mzDvDAG4pSAzCmnp0NgAC9+ZBgg/vj5RoAy83IygAI0wtePLxXk+xm3QTvnzyeP6sAD7ycGGsASurZyQAI0esnBIoZMQAOm1GpARCoF7x4eE8j2c26Cd7YXwBENr/gyeUVGgCLerY2AIL01g+hYgYMgONmNNYACNULXjy8Ojewamz+Jh/r8fyNDfDAGxO5BsCynq0MgDC99UKwmOVNtMJmVGgABOsFLx6eeS+A5GbdBO9BHs9fYYAHXkmMGACHei41AAL1jvCCDu6Rt2QAKm5GuQZAuF7w4uHtTrKbdRO8fT2ev9wADzyLGDAAjvU81gAI1TvCCzq4Lx7HQo3NaMQASNcLXlS8eZLdrJvgbfR4/kYCPPAsY9kAVKjnQgMgWO8IL+jgvnjmoQw1NqPFYZ50veBFx/sDyW3Wvnk3cCaez99ygAeeQywZgIr1nGsAhOsd4QUd3BfPPJaxxua2OMyTrhe86HifIZnNugnelxo4f+CBVyUWa9TziAGQrjePF3RwX7ysASD3TW1Rm17wouPdh/OPApu1b97N1LsBUPh8gDcBPPMiuBr1vDDMk643jxd0cF+8vgGgahvboja94MXHm52dPTBJkndwfi1Jpi7ker6Q/+mCqmk+bzj9DMz7GufZ1P3Fg4r5AC9+nnkVfA0zuzDMk67XiqdRjLkHgKp/s1nUphc88MADD7x6vKwBIPe+saBNbylPqxiyfB1wXprLQNr0ggceeOCBV4/XNwBUrXcsaNM7lqdcTCUDYCbfFIFCveCBBx544NXgmS9/VP3K8YI2vYU8jZM3xHM2AP1LPxkDoEkveOCBBx54NXhk+TrgvDR/dtamN5endfKGeE4GIHvjR88AaNMLHnjggQdePV4lA2D6hrnxXKHe3A9onbxsWBuA4Z999O4BaPr4wAMPPPDAk8VzNgD9vpExAJr05n5I6+Rlw8oAFPyOufR1wB6ODzzwwAMPPFk8JwOQ7Rs9A6BNb+4HtU5eNuq8UtXZAAjQCx544IEHXj2etQHIuXK8U6He3A9rnbxsjDUAJU8wczIAQvSCBx544IFXj2dlAAr6R+nrgD0cX/M8xZOXjUIDYPH4UmsDIEgveOCBBx549XilBmBM/3A2AAL05kOCDe6Pl2sALJ9dbmUAhOkFDzzwwAOvHm+sASjpH04GQIhePyFQzIgBcHhxSakBEKgXPPDAAw+8erxCA2DRP6wNgCC99UOomAED4PjWsrEGQKhe8MADDzzw6vFyDYBl/7AyAML01gvBYpYNQIVXlhYaAMF6wQMPPPDAq8cbMQAO/aPUAAjUO8ILOrhH3pIBqPi+8lwDIFwveOCBBx549XgDBsCxf4w1AEL1jvCCDu6Lx7FQsfnnGgDpesEDDzzwwKvNWzYAFfpHoQEQrHeEF3RwXzzzUIaKzX/EAGjQCx544IEHXm3ekgGo+OUx1wAI1zvCCzq4L555LGPF5j9gALToBQ888MADrx6PY7HGleMRAyBdbx4v6OC+eFkDQG7Nf9kAaNILHnjggQdePZ55EVyNK8cLwzzpevN4QQf3xesbAHJv/ksGQJte8MADDzzw6vHMq+BrXDleGOZJ12vF0yjG3ANA1Zp/3wCo0gseeOCBB149XtYAkHvfWNCmt5SnVQxZvg44L81lIG16wQMPPPDAq8frGwCq1jsWtOkdy1MuppIB6L3W8ViFesEDDzzwwKvBM1/+qPqV4wVtegt5GidviOdsADLvdT5WoV7wwAMPPPBq8MjydcB5af7srE1vLk/r5A3xnAxA9saPngHQphc88MADD7x6vEoGwPQNc+O5Qr25H9A6edmwNgDDP/vo3QPQ9PGBBx544IEni+dsAPp9I2MANOnN/ZDWycuGlQEoeOhD6euAPRwfeOCBBx54snhOBiDbN3oGQJve3A9qnbxslBqAMU98cjYAAvSCBx544IFXj2dtAHKuHO9UqDf3w1onLxtjDUDJ4x6dDIAQveCBBx544NXjWRmAgv5R+jpgD8fXPE/x5GWj0ABYPOvZ2gAI0gseeOCBB149XqkBGNM/nA2AAL35kGCD++PlGgDLFz1YGQBhesEDDzzwwKvHG2sASvqHkwEQotdPCBQzYgAc3vL0I84LypI/f2GS/CnN/7b5HHjggQceeCJ5Zu+veuXY2gAI7JfVQ6iYAQNQ4xWPVYsBPPDAAw+8yeFZGQCh/bJaCBazbAAiKS7wwAMPPPDk8koNgOB+ucwLOrhH3pIBiKi4wAMPPPDAk8sbawCE98tlXtDBPV7GWIisuMADDzzwwJPLKzQA0vtllhd0cF8881CGyIoLPPDAAw88ubxcA6ChX2Z5QQf3xTOPZYysuMADDzzwwJPLGzEAWvpllhd0cF+8rAGgOIoLPPDAAw88ubwBA6CpX2Z5QQf3xesbAIqnuMADDzzwwJPLWzYA2vrlWJ5GMeYeAIqruMADDzzwwJPLWzIAGvtlVM2/dxnD6nXAeSm0uMADDzzwwJPLW9DaL6Nq/j1eJQMguLjAAw888MCTy1tQ3C8FDe6H52wAhBcXeOCBBx54Qnnmz86K+6WQwf3xnAyA9OICDzzwwANPLs/ceK64Xw58QHvzN2FtADQUF3jggQceeHJ5GQOgsV8OfEh78zdhZQC0FBd44IEHHnhyeT0DoLVfDnxQe/M3UWoANBUXeOCBBx54cnm9ewCoSgjolwMf1t78TYw1ANqKCzzwwAMPPNG80tcB54WQfjkA0N78TRQaAKXFBR544IEHnlyeswEQ1C8HIcEG98fLNQCKiws88MADDzy5PCcDIKxf1guBYkYMgPLiAg888MADTy7P2gAI7JfVQ6iYAQMQQXGBB14TvB9yvrrT6RwzNzd7j5UrV+5lcnZ25p783xc5X895WUR6wQOvKZ6VARDaL6uFYDHLBiCS4gIPPF+82zjP4bybw3o7iPP9vc9q0wseeG3wSg2A4H65zAs6uEfekgGIqLjAA88H7yuc9+Csut4O4bxAkV7wwGuLN9YACO+Xy7ygg3u8jLEQWXGBB15d3rs5V3DWXW+znO9QoBc88NrkFRoA6f0yyws6uC+eeShDZMUFHnh1eKdTLzyttynOswTrBQ+8tnm5BkBDv8zygg7ui2ceyxhZcYEHXlXeudRt2L7Xm2G+R6Be8MALwRsxAFr6ZZYXdHBfvKwBoDiKCzzwqvAuIj+X/UfCfG7Lls3rkmTqO4L0ggdeKN6AAdDUL7O8oIP74vUNAMVTXOCBV4VzGFHjZvsoQXrBAy8U7yjqhbZ+OZanUYy5B4DiKi7wwHPNj3O2st6SZOqTAvSCB15I3gM5VfbLqJp/7zKG1euA81JocYEHnmse2eJ6e4gAveCBF5J3T639Mqrm3+NVMgCCiws88Fzy6lmOFtfbHOc1EZ0/8MBzZe2juF8KGtwP73CKqLjAA88x3xtg/Z4b0fkDDzynXLVq5R6K+6WQwf3xdlBExQUeeC6ZpunzA6zfk2M5f+CB58rbuHHDJsX9cuAD2pu/if0pouICDzwXXqfTOTbA+v2LWM4feOA58v6gvF8OfEh78zexB8VTXOCB58Sbnp5+aID1e2Qs5w888Fx4STL1TeX9cuCD2pu/ic0USXGBB54rb3q6c3SA9fvwWM4feOC58JIkeb/yfjnwYe3N34R5TOn1FEFxgQeeKy9N0xMDrN8TYzl/4IHnwmMDcJbyfjkA0N78+3ExRVBc4IFXgXcmVYia6+01EZ0/8MBz4Rnz6xzC+uWfIMEG98v7EMVRXOCB58ozT+ZzCg/r7b8iOn/ggefCO4AcQ2C/rB5CxbyS4igu8MBz5d3EuYEsw8N625XzlojOH3jg2fL+hzMlhxDaL6uFYDFPJP3FBR54VXlPIYvwtN5eIEAveOCF4H2MHEJwvww/uGfevqS/uMADryrvp5wzNCY8rbdVnFcK0AseeCF45gFYViG8X7r9+V+6mO3bt/FcTf1WeXGBB14d3nOoIDyutzMF6QUPvLZ55qmzpSG9X/Z5QQf3zUuS5CPKiws88OrwruO8Mw2Fx/V2EOfNgvSCB16bvF+Rxd//tfRLwwk6uG9emqYnKy4u8MDzwbuEcz31wuN6ux11/8wgTS944LXFewOVhKZ+WWoAtImZm5s7UHFxgQeeL96XODd4XG9bOS8SrBc88NrgPYDGhLZ+OdYAaBRzWPdvGt8hncUFHng+ed+dm5s9wMN6uwfnjxXoBQ+8JnmXcyZUEIr7ZTxierxTSV9xgQdeE7wb0jR90a67bl1XYb2t5nwJdZ8xoEUveOA1xXstFYTyfilocD+8fUhfcYEHXpM8c/PSKZx7UnnszflSzt8o1gseeD555qFXd6KciKBfChncL+8bpKe4wAOvTd4POM/hPIO6Pxt8LufLON9LvUv9kekFD7y6vA9STkTULyMTQ/R40lNc4IEHHnjgyeUdSkMRVb+MSkw3Zqn7m00NxQUeeOCBB55M3tdoKAT0N3+8qMQMxotJfnGBBx544IEnl3cEZUJQf/PDi0rMYGzivJZkFxd44IEHHngyeedRJoT1Nz+8qMSMxmkkt7jAAw888MCTyTN3/u9HvRDa3+rzohIzGis4f0byigs88MADDzy5vH+gXgjub/V5UYnJjycILC7wwAMPPPBk8q7g3IVTfH+rzYtKTA7voIMOmE2SqQsFFRd44IEHHnhyeQucKvpbbV5UYgp4K1bMHcCFcL2Q4gIPPPDAA08m7x85VfU3T1fKww3eBs+8KpjCFxd44IEHHngyeeZJmKs19jc0/xLepk0bzZucPkvxFCt44IEHHnh+eNdzHqy1v6H52/G2cV5J+osVPPDAAw88P7zbOP8igv7mzAs6eCDeDs4bSW+xggceeOCB5493WkT9zYkXdPCAvONJb7GCBx544IHnh/fu7du3TUXW36x5QQcPzDud9BUreOCBBx54fnjnrly5YlpIPwrCCzq4AN6ICRBcrOCBBx544PnhvXfSm/9YA6BRTEXe35H8YgUPPPDAA88P7z3z86s6QvtRq7yoxFTlcfyd4GIFDzzwwAOvPs/c7X+m+Um45H4UlBeVGAdep9M5fqr3tEAhxQoeeOCBB54f3g2cj9PSj9D8A/BmZ2cO5eL6JYUvVvDAAw888Pzwfsp5oLZ+hOYfgJckyVb+509TPMUPHnjggTepvLdzrtfaj9D8w/CmOJ/EeTXpLn7wwAMPvEnkXc75cM4Y+lFzvKjE+OfdkfPjpK/4wQMPPPAmkXcT5xs513KG7h/yeVGJaY53GOcFJL/4wQMPPPAmkXcr5/s496ReCOofcnlRiWmWZ/4scAznJSSv+MEDDzzwJpF3M+e5nPtRJgT2D5m8qMS0wzOvFT4sSZKzpzI/G4xkMYEHHnjgaeD9nPMs6r7hdSCE9w9ZvKjEtMxbu3bN7dM0PZmL9QvUdaJaFxN44IEHnnTejzjfRN0/yZovYiOhqX+I4EUlJizP3HRyNOdbOL9J3QdPSF5M4IEHHnhSebdwfp/zA5xP47wzlYTy/hGGF5UYWbyUujek7OT8G+q+c+B1nP9M3ZtV3pckybmc78/kuf1/q5LgNcb7EMneLMEbzQ9FVH8x897O+YY0TV/G+QL+78dx3p1zlhxCwH6vmhd0cPDAE857AOluhpPIu7/D/DoFeODFxAs6OHjgKeCZm400N8NJ5L3MYX6tAzzwYuIFHRw88JTwLiLdzXASed+MqP7AA68RXtDBwQNPAc+8G8K8RlRzM5xE3m3z86vuGEH9gQdeY7ygg4MHngLeX5L+ZjiRvE6n85cR1B944DXGCzo4eOAp4Jk7ndU3w0nkmbvMI6g/8MBrjBd0cPDAE87rcF5FETTDCeX9fu+977xCcf2BB16jvKjEgAeeZ979KJ5mOJG8qSnaMW6Ci0JI/YEHXqO8qMSAB55n3ssoomY4obyXlk3ycAiqP/DAa5cXlRjwwKvHM490jqkZTiLv6zYT3Q9h9QceeGj+4IEXgHc7yvn5n/JmOIk88574LTYTLqz+wAMPzR888ALxnkDhmxd4fnjHl022wPoDDzw0f/DAC8QzLyyR0LzAq89717iJFlp/4IHXPC8qMeCB54dn3uT4O5LRvMCrz/tNb05HQmj9gQdeO7yoxIAHnh/eoSSneYHnh3fI8CQLrj/wwGuHF5UY8MDzwzudZDUv8OrzTs1OsPD6Aw+8dnhRiQEPPA88jguFNS/w6vO+0p9c6fUHHnit8aISAx54NXlJktyOm8ttwpoXePV55ueAm6TXH3jgtcqLSgx44NXkpWl6osDmBZ4f3nHS6w888FrlRSUGPPBq8pIkeZ/Q5gVeTR7P7dnS6w888ELwgg4OHngt8swLMPblPILzGM4ncj6Jv/mf1OmkJ3GT+a3E5gWeF96vzRybNPPdm/tjerWwb682SkNYPYMHHpo/eOAVRMJp/vHlnN/gvIl0Ni/wmueZ2riQ8yzOB/RqZyAE1DN44KH5gwdeCW895ws4f0wymw148nk/4nw+5zpTUJGtD/DACzs4eOA1wFvB+ULOq0hXswFPLu/3nC/YbbddV0ewPsADb5kXdHDwwPPM28F5CeluNuDJ5f1wZobLTu/6AA+8AV7QwcEDzxNvivPF1P2tdyzNBjyZvFvTNHnx9u3bpqhCRLLewIuEF3Rw8MDzwJvj/ADJaA7gTQ7PvC1ylhwikvUGXkS8qMSAN3E8swF/lOQ1B/Amg/dx6t5zUhqRrDfwIuNFJQa8ieKZ17v+O8ltDuBNBu9jVPCq4X5Est7AmwReVGLAi5n39yS/OYA3GbzXUkFEtN7Ai50XlRjwYuY9hvQ0B/Amg3csDUVE6w282HlRiQEvZt7tqfu7bE3NAbz4eea5E9uoFxGtN/Bi50UlBrzYeR8hfc0BvMngfZAz9PoADzw0f/Ci5D2Q9DYH8CaD92cRrTfwYudFJQa82HlfJd3NAbz4eV+KaL2BFzsvKjHgxcy7H+lvDuBNAG9mZub+Eaw38CaBF5UY8GLmmSevqW8O4MXPS5Lk3AjWG3iTwItKDHix8tZwXk8RNAfwJoJ3Q6eTmpp1DiHrDbxJ4UUlBrxYecdTPM0BvMngmWdVOIWg9QbepPCiEgNerLxzKK7mAF78vHeSQwhbb+BNGC/o4OCBVxI/o7iaA3jx8y4jyxC43sCbIF7QwcEDryTMk/9Cb+bggVeFt5VKQuB6A2+CeEEHBw88i3gQydjMwQPPlfcAGhNC1xt4E8QLOjh44FnEk0nGZg4eeK68J1JBCF5v4E0QL+jg4IFnEaeQjM0cPPBceS+inBC+3sCbIF7QwcEDzyJeLmQzBw88V96ZNBTS1xt4k8ULOjh44JXxkiR5s5DNHDzwXHlvpExoWG/gTRYvKjHgxcdjA/D/hGzm4IHnyngz9ULLegNvsnhRiQEvPl7WAFBczQG8+HlLBkDTegNvwnlRiQFPPa9vACj8Zg4eeK75Zm3rDbwJ5kUlBrwoeMYAkIzNHDzwXPPN2tYbeBPKi0oMeNHwqHsZVcJmDh54TmnMq7b1Bt4E8qISA15svEoGQHpzAC9+3pAB0LLewJskXlRiwIuR52wANDQH8OLnZQyApvUG3iTxohIDXoy815OAzRw88Fx5bADeoHC9gTdJvKjEgBcj74UkYDMHDzxXXpomL1S43sCbJF5UYsCLkXcCCdjMwQOvAu94qhCRrV/wJPOiEgNejLw7cN5G4Tdz8MBz4Zma3Y0cQ8B6A2+SeFGJAS9W3kUUV3MAL37eN8kxBK038CaFF5UY8GLlPY7iag7gxc97DDmEsPUG3oTxgg4OHnglkXJ+m+JpDuDFzbuoV7NWIXC9gTdBvKCDgweeZezFeTXpbw7gxc27hvOuZBmC1xt4E8ALOjh44DnGw3izvUFxcwAvbt4NnAtkGdLXG3jx84IODh54rryZmZn786Z7hcLmAF7cvMs570OWoWW9gRc3L+jg4IFXhbfLLhs3JUnyKv6na0lHcwAvXp6pwZdzriHL0LbewIuXF3Rw8MCryVvJ+UjO13C+h/OTNpkkU+ezgcjk1Pm2nwUPPM738n9/NefRnCvIIZSvN/Ai4wUdHDzwwAMPPPDAC8OLSgx44IEHHnjggWfHi0oMeOCBBx544IFXkReVGPDAAw888MADD80fPPDAAw888MCTNDh44IEHHnjggYfmDx544IEHHnjgNcyLSgx44IEHHnjggWfHi0oMeOCBBx544IFnx4tKDHjggQceeOCBZ8eLSgx44IEHHnjggWfHi0oMeOCBBx544IFnDYhHDHjggQceeOCBZw8JNjh44IEHHnjggReUF3Rw8MADDzzwwAOvfV7QwcEDDzzwwAMPvPZ5QQcHDzzwwAMPPPDC8IIODh544IEHHnjgheEFHRw88MADDzzwwAvDCzo4eOCBBx544IEXhhd0cPDAAw888MADLwwvKjHggQceeOCBB54dLyox4IEHHnjggQeeHe//A+Yz309N8bKNAAAAAElFTkSuQmCC;" vertex="1" parent="1">
          <mxGeometry x="815" y="600" width="90" height="90" as="geometry" />
        </mxCell>
        <mxCell id="ATZNOSKyb4ENtHDWsNNq-4" style="edgeStyle=orthogonalEdgeStyle;rounded=0;orthogonalLoop=1;jettySize=auto;html=1;entryX=1;entryY=0.5;entryDx=0;entryDy=0;" edge="1" parent="1" source="ATZNOSKyb4ENtHDWsNNq-2" target="do6JsDz9k9hJdT36Sn_r-13">
          <mxGeometry relative="1" as="geometry">
            <Array as="points">
              <mxPoint x="700" y="445" />
              <mxPoint x="700" y="335" />
            </Array>
          </mxGeometry>
        </mxCell>
        <mxCell id="ATZNOSKyb4ENtHDWsNNq-2" value="Threat" style="text;html=1;align=center;verticalAlign=middle;whiteSpace=wrap;rounded=0;" vertex="1" parent="1">
          <mxGeometry x="810" y="430" width="100" height="30" as="geometry" />
        </mxCell>
      </root>
    </mxGraphModel>
  </diagram>
</mxfile>
